<?xml version="1.0" encoding="UTF-8" standalone="no"?>
<!DOCTYPE svg PUBLIC "-//W3C//DTD SVG 1.1//EN" "http://www.w3.org/Graphics/SVG/1.1/DTD/svg11.dtd">
<svg xmlns="http://www.w3.org/2000/svg" version="1.1" viewBox="0.00 0.00 200.00 200.00">
<g stroke-width="2.00" fill="none" stroke-linecap="butt">
<path stroke="#f2f1f2" stroke-opacity="0.980" vector-effect="non-scaling-stroke" d="
  M 33.63 96.99
  Q 33.87 99.68 34.92 99.63"
/>
<path stroke="#f2f1f2" stroke-opacity="0.980" vector-effect="non-scaling-stroke" d="
  M 36.67 97.47
  Q 36.68 96.67 35.37 96.94
  Q 35.51 96.78 35.77 96.88
  Q 36.68 96.66 36.79 97.49
  A 0.37 0.37 0.0 0 0 37.43 97.69
  Q 37.92 97.12 38.62 97.43
  Q 38.69 97.46 38.66 97.52
  Q 38.58 97.72 38.60 97.93
  A 0.53 0.51 87.8 0 0 39.07 98.38
  Q 39.49 98.41 39.88 98.32
  Q 40.04 98.28 40.04 98.11
  Q 40.04 98.06 40.00 98.03
  Q 39.72 97.79 40.08 97.86
  Q 40.21 97.89 40.33 97.89
  A 0.33 0.32 -76.7 0 0 40.64 97.69
  Q 41.37 95.94 43.49 96.42
  Q 43.66 96.46 43.65 96.63
  Q 43.64 96.76 43.62 96.89
  Q 43.51 97.48 44.02 97.81
  Q 45.72 98.91 47.25 97.80
  Q 47.66 97.49 47.66 96.97
  Q 47.66 96.38 47.30 96.20
  L 47.34 94.97
  Q 47.36 94.38 46.77 94.35
  Q 46.54 94.34 46.35 94.14
  Q 45.81 93.57 46.59 93.61
  Q 46.79 93.62 46.98 93.60
  Q 47.25 93.59 47.35 93.37
  Q 47.42 93.21 47.39 93.06
  A 0.17 0.17 0.0 0 1 47.50 92.86
  Q 48.28 92.61 48.19 93.43
  Q 48.10 94.12 48.80 94.12
  L 50.31 94.12
  A 0.34 0.34 0.0 0 1 50.65 94.46
  Q 50.66 95.56 50.16 96.49
  A 1.03 1.03 0.0 0 0 50.62 97.91
  Q 52.48 98.80 53.39 96.94
  Q 53.53 96.65 53.39 96.37
  Q 52.96 95.55 53.33 94.60
  Q 53.48 94.22 53.86 94.05
  Q 54.44 93.81 54.35 93.18
  Q 54.28 92.75 54.68 92.86
  Q 54.95 92.94 55.17 92.76
  A 0.06 0.06 0.0 0 1 55.26 92.79
  Q 55.76 94.21 55.26 95.26
  Q 55.05 95.71 55.49 95.92
  Q 56.67 96.48 57.85 95.20
  A 0.76 0.76 0.0 0 1 59.17 95.64
  Q 59.22 96.22 60.46 96.32"
/>
<path stroke="#f2f1f2" stroke-opacity="0.980" vector-effect="non-scaling-stroke" d="
  M 62.10 94.89
  Q 61.63 93.76 61.75 92.74
  Q 61.78 92.53 61.61 92.40
  Q 61.44 92.28 61.25 92.40
  A 0.26 0.26 0.0 0 1 60.85 92.19
  Q 60.85 91.80 61.21 91.49"
/>
<path stroke="#f2f1f2" stroke-opacity="0.980" vector-effect="non-scaling-stroke" d="
  M 62.16 90.21
  Q 61.97 89.59 63.09 89.50
  Q 63.52 89.47 63.83 89.77
  Q 64.00 89.93 64.23 89.91
  Q 64.78 89.85 64.79 89.30
  Q 64.81 88.37 65.60 88.19"
/>
<path stroke="#f2f1f2" stroke-opacity="0.980" vector-effect="non-scaling-stroke" d="
  M 71.98 83.55
  L 73.98 82.81"
/>
<path stroke="#f2f1f2" stroke-opacity="0.980" vector-effect="non-scaling-stroke" d="
  M 80.41 72.05
  Q 80.36 72.32 80.39 72.49
  A 0.34 0.34 0.0 0 0 81.06 72.47
  L 81.28 70.22"
/>
<path stroke="#f2f1f2" stroke-opacity="0.980" vector-effect="non-scaling-stroke" d="
  M 70.98 95.77
  Q 70.39 95.99 70.01 96.75
  Q 69.75 97.27 70.32 97.14
  Q 71.79 96.80 72.17 95.23
  Q 72.31 94.61 71.83 95.03
  L 70.98 95.77"
/>
<path stroke="#f2f1f2" stroke-opacity="0.980" vector-effect="non-scaling-stroke" d="
  M 70.98 95.77
  L 71.69 94.70
  Q 71.96 94.29 71.81 93.83
  Q 71.57 93.13 70.75 92.69
  Q 70.53 92.57 70.30 92.69
  Q 70.18 92.76 70.15 92.90
  Q 70.03 93.72 69.47 93.13
  Q 69.09 92.73 68.55 93.08
  Q 67.83 93.55 67.66 94.33
  Q 67.49 95.05 66.73 95.20
  Q 65.83 95.39 66.60 95.91
  L 68.07 96.90
  Q 68.57 97.24 68.99 96.80
  Q 69.74 96.02 70.98 95.77"
/>
<path stroke="#f2f1f2" stroke-opacity="0.980" vector-effect="non-scaling-stroke" d="
  M 62.13 98.63
  Q 59.76 98.83 57.43 99.27
  Q 57.42 99.28 57.42 99.29
  L 57.44 99.54
  A 0.28 0.28 0.0 0 0 57.72 99.79
  Q 60.48 99.75 63.30 99.96
  Q 64.63 100.07 64.94 98.88
  A 0.41 0.41 0.0 0 0 64.62 98.38
  Q 62.13 97.86 62.13 98.63"
/>
<path stroke="#f2f1f2" stroke-opacity="0.980" vector-effect="non-scaling-stroke" d="
  M 147.16 104.55
  L 147.15 104.92
  A 0.25 0.25 0.0 0 0 147.62 105.03
  Q 148.35 103.56 147.18 101.69
  A 1.14 1.14 0.0 0 0 145.57 101.35
  Q 144.11 102.36 142.19 102.25
  A 0.82 0.81 -18.6 0 0 141.52 103.59
  Q 142.91 105.19 144.35 104.46
  Q 144.64 104.31 144.88 104.52
  Q 145.59 105.14 145.70 105.91
  Q 145.81 106.65 146.38 106.17
  Q 146.77 105.83 147.00 105.21"
/>
<path stroke="#f2f1f2" stroke-opacity="0.980" vector-effect="non-scaling-stroke" d="
  M 87.85 116.75
  Q 88.21 116.31 88.13 115.75
  Q 88.06 115.28 87.62 115.10
  Q 86.75 114.75 86.64 113.76
  Q 86.58 113.24 86.06 113.23
  Q 83.20 113.15 81.45 114.99"
/>
<path stroke="#f2f1f2" stroke-opacity="0.980" vector-effect="non-scaling-stroke" d="
  M 83.60 126.75
  Q 84.55 124.32 83.84 123.02
  A 0.96 0.96 0.0 0 0 82.08 123.21
  L 80.74 127.74"
/>
</g>
<path fill="#d9a525" d="
  M 110.22 18.11
  C 111.38 17.36 112.74 16.94 114.14 17.13
  C 119.15 17.80 119.78 21.18 119.05 25.42
  Q 118.20 30.38 117.82 34.64
  Q 117.79 34.95 117.48 34.91
  L 110.01 33.86
  Q 109.74 33.83 109.78 33.56
  L 111.02 24.93
  Q 111.15 24.06 110.27 23.96
  L 109.97 23.92
  A 0.60 0.59 -82.6 0 0 109.31 24.43
  L 108.18 33.06
  Q 108.11 33.61 107.57 33.53
  Q 100.66 32.63 100.66 32.63
  Q 100.10 32.55 100.18 31.99
  Q 101.31 24.29 102.33 16.40
  Q 102.41 15.79 103.02 15.88
  L 108.53 16.71
  Q 109.06 16.79 109.40 17.20
  Q 109.57 17.41 109.53 17.64
  Q 109.34 18.68 110.22 18.11
  Z"
/>
<path fill="#d9a525" d="
  M 88.82 25.18
  L 88.62 24.85
  A 0.68 0.67 -17.0 0 0 87.99 24.52
  Q 84.92 24.75 81.85 26.44
  A 0.16 0.16 0.0 0 1 81.62 26.32
  L 80.85 19.38
  Q 80.83 19.18 81.00 19.07
  C 86.10 16.02 97.80 13.71 97.52 23.67
  Q 97.50 24.15 97.72 24.58
  Q 99.09 27.37 99.01 31.51
  Q 99.00 32.01 98.56 32.22
  C 96.48 33.21 93.49 34.17 91.72 32.26
  Q 91.46 31.98 91.17 32.25
  Q 88.28 35.02 84.55 34.25
  C 83.48 34.03 82.35 33.35 82.00 32.26
  Q 80.14 26.51 88.60 25.64
  Q 89.07 25.59 88.82 25.18
  Z
  M 88.94 26.39
  C 88.71 26.70 88.54 26.93 88.28 27.23
  Q 88.03 27.51 88.27 27.81
  Q 88.65 28.29 89.28 28.25
  Q 89.74 28.22 89.88 27.78
  Q 90.10 27.03 89.49 26.36
  A 0.36 0.35 -47.8 0 0 88.94 26.39
  Z"
/>
<path fill="#d9a525" d="
  M 140.09 33.99
  C 140.90 38.38 137.10 42.79 132.49 40.99
  Q 126.51 38.66 119.18 35.27
  A 0.43 0.42 -66.2 0 1 118.97 34.71
  L 126.41 17.69
  Q 126.66 17.13 127.23 17.36
  Q 132.81 19.66 137.98 22.23
  C 142.84 24.65 145.18 28.60 140.35 33.17
  Q 140.00 33.51 140.09 33.99
  Z
  M 132.5445 30.4949
  A 1.18 0.96 104.0 0 0 133.7615 29.5822
  A 1.18 0.96 104.0 0 0 133.1155 28.2051
  A 1.18 0.96 104.0 0 0 131.8985 29.1178
  A 1.18 0.96 104.0 0 0 132.5445 30.4949
  Z
  M 133.7507 33.2639
  A 0.68 0.68 0.0 0 0 133.4408 32.3535
  L 131.7898 31.5411
  A 0.68 0.68 0.0 0 0 130.8794 31.8511
  L 130.7293 32.1561
  A 0.68 0.68 0.0 0 0 131.0392 33.0665
  L 132.6902 33.8789
  A 0.68 0.68 0.0 0 0 133.6006 33.5689
  L 133.7507 33.2639
  Z"
/>
<path fill="#d9a525" d="
  M 71.51 31.75
  L 71.64 32.12
  Q 71.70 32.32 71.90 32.24
  L 78.04 29.62
  Q 78.73 29.33 79.00 30.02
  L 80.42 33.62
  Q 80.68 34.30 80.10 34.73
  C 76.29 37.52 69.48 40.99 65.75 37.14
  Q 63.29 34.59 62.43 30.64
  C 61.04 24.28 66.86 21.04 72.28 20.83
  C 75.85 20.69 77.79 24.67 78.65 27.61
  A 0.57 0.56 70.9 0 1 78.32 28.30
  L 71.87 30.96
  Q 71.32 31.19 71.51 31.75
  Z
  M 71.94 28.78
  A 1.01 1.01 0.0 0 0 70.93 27.77
  A 1.01 1.01 0.0 0 0 69.92 28.78
  A 1.01 1.01 0.0 0 0 70.93 29.79
  A 1.01 1.01 0.0 0 0 71.94 28.78
  Z"
/>
<path fill="#d9a525" d="
  M 55.79 38.02
  L 55.97 38.38
  Q 56.27 38.96 56.82 38.62
  Q 59.33 37.09 60.23 36.11
  Q 61.06 35.23 61.76 36.22
  L 64.60 40.25
  Q 65.13 41.00 64.49 41.66
  C 59.07 47.33 52.41 50.88 47.30 41.99
  Q 44.13 36.48 48.74 32.27
  Q 51.79 29.49 55.51 28.28
  Q 56.08 28.10 56.43 28.59
  L 60.13 33.89
  Q 60.46 34.36 59.99 34.68
  L 55.92 37.50
  A 0.41 0.39 -32.0 0 0 55.79 38.02
  Z"
/>
<path fill="#d9a525" d="
  M 148.47 41.85
  Q 150.14 42.73 148.99 41.23
  Q 147.09 38.76 143.35 38.04
  Q 143.07 37.99 143.25 37.76
  L 147.73 32.32
  Q 147.91 32.11 148.17 32.19
  Q 154.08 33.99 157.72 38.69
  C 160.46 42.25 158.18 45.25 155.72 47.89
  C 155.45 48.18 155.26 48.58 155.28 48.98
  A 1.02 1.01 -28.4 0 1 155.07 49.68
  L 151.95 53.55
  Q 151.45 54.18 150.71 53.89
  C 148.63 53.10 146.07 51.73 145.94 49.32
  Q 145.91 48.81 145.42 48.74
  C 141.76 48.18 136.36 44.46 140.39 40.49
  C 142.98 37.94 146.04 40.57 148.47 41.85
  Z
  M 146.86 43.97
  Q 146.88 45.09 147.92 44.67
  Q 148.51 44.44 148.73 43.84
  Q 149.01 43.12 148.25 42.98
  Q 146.85 42.74 146.86 43.97
  Z"
/>
<path fill="#d9a525" d="
  M 43.4055 60.9484
  A 8.20 8.20 0.0 0 1 31.8447 61.8583
  L 28.9703 59.4034
  A 8.20 8.20 0.0 0 1 28.0605 47.8426
  L 31.5545 43.7516
  A 8.20 8.20 0.0 0 1 43.1153 42.8417
  L 45.9897 45.2966
  A 8.20 8.20 0.0 0 1 46.8995 56.8574
  L 43.4055 60.9484
  Z
  M 40.1868 54.6028
  A 2.71 0.91 40.3 0 0 38.7086 52.1560
  A 2.71 0.91 40.3 0 0 36.0532 51.0972
  A 2.71 0.91 40.3 0 0 37.5314 53.5440
  A 2.71 0.91 40.3 0 0 40.1868 54.6028
  Z"
/>
<path fill="#d9a525" d="
  M 168.21 51.21
  Q 167.29 51.88 168.42 51.95
  Q 170.60 52.09 171.96 53.92
  Q 172.30 54.39 171.85 54.77
  L 165.81 59.80
  A 0.46 0.45 -35.9 0 1 165.14 59.70
  L 163.50 57.15
  Q 163.18 56.64 162.72 57.03
  L 157.04 61.81
  Q 156.84 61.98 156.67 61.77
  L 151.63 55.65
  Q 151.44 55.42 151.67 55.22
  L 163.89 45.09
  Q 164.42 44.65 164.84 45.18
  Q 166.52 47.28 168.26 49.32
  Q 168.75 49.91 168.58 50.65
  Q 168.49 51.00 168.21 51.21
  Z"
/>
<path fill="#f9faf8" d="
  M 33.63 96.99
  Q 33.87 99.68 34.92 99.63
  Q 38.48 101.53 36.67 97.47
  Q 36.68 96.67 35.37 96.94
  Q 35.51 96.78 35.77 96.88
  Q 36.68 96.66 36.79 97.49
  A 0.37 0.37 0.0 0 0 37.43 97.69
  Q 37.92 97.12 38.62 97.43
  Q 38.69 97.46 38.66 97.52
  Q 38.58 97.72 38.60 97.93
  A 0.53 0.51 87.8 0 0 39.07 98.38
  Q 39.49 98.41 39.88 98.32
  Q 40.04 98.28 40.04 98.11
  Q 40.04 98.06 40.00 98.03
  Q 39.72 97.79 40.08 97.86
  Q 40.21 97.89 40.33 97.89
  A 0.33 0.32 -76.7 0 0 40.64 97.69
  Q 41.37 95.94 43.49 96.42
  Q 43.66 96.46 43.65 96.63
  Q 43.64 96.76 43.62 96.89
  Q 43.51 97.48 44.02 97.81
  Q 45.72 98.91 47.25 97.80
  Q 47.66 97.49 47.66 96.97
  Q 47.66 96.38 47.30 96.20
  L 47.34 94.97
  Q 47.36 94.38 46.77 94.35
  Q 46.54 94.34 46.35 94.14
  Q 45.81 93.57 46.59 93.61
  Q 46.79 93.62 46.98 93.60
  Q 47.25 93.59 47.35 93.37
  Q 47.42 93.21 47.39 93.06
  A 0.17 0.17 0.0 0 1 47.50 92.86
  Q 48.28 92.61 48.19 93.43
  Q 48.10 94.12 48.80 94.12
  L 50.31 94.12
  A 0.34 0.34 0.0 0 1 50.65 94.46
  Q 50.66 95.56 50.16 96.49
  A 1.03 1.03 0.0 0 0 50.62 97.91
  Q 52.48 98.80 53.39 96.94
  Q 53.53 96.65 53.39 96.37
  Q 52.96 95.55 53.33 94.60
  Q 53.48 94.22 53.86 94.05
  Q 54.44 93.81 54.35 93.18
  Q 54.28 92.75 54.68 92.86
  Q 54.95 92.94 55.17 92.76
  A 0.06 0.06 0.0 0 1 55.26 92.79
  Q 55.76 94.21 55.26 95.26
  Q 55.05 95.71 55.49 95.92
  Q 56.67 96.48 57.85 95.20
  A 0.76 0.76 0.0 0 1 59.17 95.64
  Q 59.22 96.22 60.46 96.32
  Q 64.79 96.45 62.10 94.89
  Q 61.63 93.76 61.75 92.74
  Q 61.78 92.53 61.61 92.40
  Q 61.44 92.28 61.25 92.40
  A 0.26 0.26 0.0 0 1 60.85 92.19
  Q 60.85 91.80 61.21 91.49
  L 61.34 91.88
  Q 61.52 92.44 61.94 92.03
  Q 62.52 91.47 63.34 91.13
  Q 63.96 90.86 63.54 90.33
  Q 63.02 89.69 62.16 90.21
  Q 61.97 89.59 63.09 89.50
  Q 63.52 89.47 63.83 89.77
  Q 64.00 89.93 64.23 89.91
  Q 64.78 89.85 64.79 89.30
  Q 64.81 88.37 65.60 88.19
  L 68.76 89.05
  A 0.87 0.87 0.0 0 0 69.85 88.34
  Q 70.25 85.58 71.98 83.55
  L 73.98 82.81
  Q 75.59 80.90 76.48 77.78
  Q 77.04 75.80 79.13 74.64
  Q 80.48 73.89 80.41 72.05
  Q 80.36 72.32 80.39 72.49
  A 0.34 0.34 0.0 0 0 81.06 72.47
  L 81.28 70.22
  Q 81.94 69.88 82.68 70.01
  Q 83.30 70.11 83.02 70.69
  C 81.66 73.48 82.74 75.25 79.77 77.44
  A 1.15 1.14 75.8 0 0 79.33 78.18
  C 79.11 79.82 79.65 81.66 78.90 83.15
  C 77.33 86.26 72.46 83.84 72.39 89.51
  A 1.22 1.17 -67.5 0 0 72.71 90.33
  C 74.37 92.08 77.88 94.67 77.93 97.11
  Q 77.97 98.94 77.25 101.31
  Q 76.43 104.05 73.75 103.24
  Q 73.24 103.08 73.05 102.58
  Q 72.81 101.97 72.20 101.83
  Q 71.52 101.68 71.43 102.36
  C 71.03 105.16 69.81 107.71 70.53 110.59
  C 71.31 113.75 70.29 117.06 71.64 119.93
  Q 73.75 124.42 76.28 127.40
  Q 76.95 128.18 77.49 127.31
  L 80.30 122.81
  Q 80.92 121.80 80.19 120.88
  Q 78.25 118.44 76.00 116.89
  A 0.64 0.63 49.7 0 1 76.09 115.79
  L 84.72 111.75
  Q 85.16 111.54 85.31 111.07
  C 86.42 107.58 87.51 104.96 87.00 102.18
  C 86.41 98.92 81.92 96.32 83.36 92.95
  A 1.62 1.60 88.5 0 1 84.09 92.17
  L 85.72 91.32
  A 1.55 1.54 86.9 0 0 86.45 90.50
  Q 88.30 85.79 89.94 81.11
  C 90.55 79.36 90.05 77.56 90.89 75.93
  Q 91.99 73.79 92.74 71.32
  A 1.29 1.28 -73.5 0 0 91.87 69.71
  C 85.73 67.95 84.86 60.00 89.43 56.13
  Q 91.39 54.47 93.28 52.44
  C 95.78 49.75 99.77 49.20 103.34 49.84
  Q 106.02 50.33 108.54 49.31
  C 114.13 47.05 118.66 49.07 122.23 53.50
  Q 123.55 55.15 125.56 55.43
  C 130.25 56.07 133.29 59.44 133.42 64.29
  C 133.50 67.66 135.37 70.33 134.94 73.65
  C 134.36 78.06 129.79 79.04 125.81 79.24
  Q 125.24 79.27 124.90 79.74
  Q 122.96 82.44 123.67 85.52
  Q 123.82 86.12 124.32 86.49
  C 127.43 88.72 126.52 92.13 125.53 95.19
  Q 125.34 95.77 125.63 96.32
  C 126.14 97.29 126.46 98.14 126.09 99.26
  Q 124.98 102.57 123.75 105.48
  A 1.27 1.27 0.0 0 0 124.41 107.14
  C 126.06 107.85 127.65 108.91 128.41 110.59
  Q 129.41 112.83 131.10 114.62
  Q 131.81 115.36 132.47 114.63
  A 1.03 1.03 0.0 0 0 132.60 113.44
  C 131.74 111.89 131.02 109.69 132.27 108.12
  Q 134.83 104.89 138.37 102.36
  C 140.75 100.67 143.64 101.05 146.32 100.10
  Q 147.36 99.73 148.36 99.99
  Q 149.64 100.32 149.76 101.85
  Q 150.02 105.03 151.82 102.40
  Q 153.56 99.89 154.89 97.06
  Q 155.56 95.64 157.11 95.01
  A 1.84 1.83 68.2 0 1 159.50 96.04
  L 160.28 98.01
  Q 160.53 98.66 161.16 98.97
  C 163.32 100.02 163.37 103.23 162.87 105.26
  Q 162.72 105.87 163.28 106.16
  Q 164.28 106.67 164.99 107.52
  A 0.65 0.64 52.0 0 1 164.88 108.44
  L 164.62 108.63
  Q 164.16 108.98 163.90 108.47
  Q 163.57 107.82 162.29 108.41
  Q 158.63 110.11 156.40 113.53
  A 0.50 0.50 0.0 0 0 156.63 114.27
  Q 157.28 114.54 157.91 114.19
  Q 160.74 112.63 162.87 110.33
  Q 163.05 110.14 163.25 110.32
  L 163.43 110.49
  Q 163.46 110.51 163.44 110.53
  Q 158.84 115.79 154.98 118.12
  C 150.56 120.79 144.83 122.73 145.93 129.22
  C 147.18 136.69 145.92 143.86 139.68 148.57
  Q 130.18 155.73 120.57 149.29
  C 117.38 147.16 114.18 144.23 111.72 141.40
  Q 109.70 139.07 110.21 133.97
  Q 110.31 132.97 110.68 132.15
  Q 112.33 128.48 113.03 132.44
  Q 114.26 139.42 118.34 144.42
  C 125.66 153.41 138.71 152.46 142.56 140.88
  Q 142.78 140.20 142.09 140.02
  C 139.02 139.21 135.86 138.01 133.51 135.84
  Q 131.75 134.21 129.64 132.93
  Q 128.65 132.33 128.05 133.33
  Q 126.96 135.17 125.60 136.54
  Q 123.72 138.42 124.74 135.97
  Q 128.03 128.05 131.83 120.69
  Q 132.10 120.16 131.98 119.59
  Q 130.97 115.02 126.43 112.90
  Q 125.41 112.41 124.66 113.27
  C 120.85 117.63 116.86 118.85 111.31 118.41
  Q 107.02 118.06 102.48 119.52
  Q 102.09 119.64 102.15 120.05
  Q 103.03 126.21 99.45 131.41
  A 1.33 1.33 0.0 0 1 97.20 131.32
  Q 94.69 126.98 89.94 124.33
  Q 89.47 124.06 89.38 123.52
  C 89.15 122.15 90.08 121.03 89.91 119.86
  Q 89.80 119.15 89.24 119.61
  C 87.10 121.39 87.31 123.95 86.51 126.39
  C 85.23 130.27 86.82 133.90 86.60 137.83
  Q 86.30 143.01 84.29 148.21
  A 0.39 0.39 0.0 0 1 83.63 148.31
  Q 83.17 147.75 83.11 146.99
  Q 83.03 145.89 81.96 146.10
  C 74.64 147.53 63.65 147.42 60.40 138.79
  Q 58.58 133.95 56.87 128.89
  Q 56.32 127.25 57.30 121.48
  A 1.43 1.42 35.1 0 0 57.13 120.52
  Q 55.98 118.50 54.17 117.05
  Q 48.15 112.25 43.24 105.80
  C 40.89 102.72 38.11 103.89 35.41 102.87
  Q 31.66 101.46 33.63 96.99
  Z
  M 107.06 68.85
  Q 107.77 70.32 109.45 69.85
  Q 110.01 69.70 109.98 69.12
  Q 109.95 68.47 109.49 68.07
  Q 109.12 67.75 109.09 67.26
  Q 109.04 66.48 109.60 66.06
  A 0.96 0.94 -35.3 0 1 110.95 66.28
  L 112.86 69.07
  A 1.51 1.47 -8.5 0 0 113.68 69.66
  Q 116.11 70.34 118.74 69.71
  A 1.00 1.00 0.0 0 1 119.31 69.74
  Q 120.17 70.06 120.02 70.90
  A 0.83 0.79 -17.1 0 1 119.78 71.33
  Q 119.52 71.58 119.18 71.65
  Q 118.49 71.79 118.48 72.49
  Q 118.47 72.95 118.85 73.21
  Q 119.28 73.51 119.78 73.47
  Q 121.75 73.33 123.84 73.43
  Q 124.43 73.46 124.76 73.95
  Q 126.99 77.25 131.12 75.54
  Q 134.25 74.24 133.77 71.09
  C 133.47 69.08 131.80 68.10 131.82 65.83
  C 131.84 61.63 129.85 57.38 125.15 56.91
  Q 124.57 56.85 124.14 57.25
  L 122.41 58.91
  A 1.01 1.01 0.0 0 1 120.70 58.21
  Q 120.48 51.03 113.16 50.04
  C 109.99 49.60 107.73 51.35 106.63 54.22
  A 0.59 0.58 26.2 0 1 105.77 54.51
  C 104.52 53.74 103.98 52.29 102.67 51.66
  Q 98.70 49.75 95.13 52.76
  Q 92.68 54.82 90.15 56.86
  C 86.14 60.08 87.25 66.40 92.03 68.29
  Q 92.57 68.50 92.90 68.02
  L 94.35 65.85
  A 0.68 0.67 -40.9 0 1 95.52 65.93
  Q 96.51 67.99 98.98 68.35
  C 100.97 68.65 102.66 67.13 104.26 66.16
  Q 104.77 65.85 105.19 66.27
  Q 106.37 67.42 107.06 68.85
  Z
  M 106.50 70.96
  L 105.12 68.48
  A 1.21 1.21 0.0 0 0 103.14 68.28
  L 101.41 70.32
  A 0.92 0.88 7.5 0 1 101.03 70.60
  Q 100.35 70.87 99.93 70.51
  Q 99.59 70.20 99.14 70.19
  Q 97.13 70.15 95.73 68.65
  A 0.79 0.79 0.0 0 0 94.39 68.98
  L 92.87 74.48
  A 0.68 0.68 0.0 0 0 93.59 75.34
  Q 97.49 74.94 101.48 74.71
  Q 109.18 74.25 115.56 77.23
  Q 117.65 78.21 116.63 76.14
  Q 116.16 75.19 116.59 74.19
  A 1.12 1.12 0.0 0 0 115.56 72.63
  L 113.49 72.63
  Q 112.98 72.63 112.69 72.20
  Q 111.91 71.03 110.46 70.21
  A 0.74 0.73 33.6 0 0 109.51 70.40
  Q 108.53 71.66 107.02 71.34
  Q 106.67 71.27 106.50 70.96
  Z
  M 125.19 76.15
  Q 125.61 76.01 125.36 75.63
  Q 125.09 75.23 124.64 75.21
  A 0.47 0.47 0.0 0 0 124.15 75.70
  Q 124.18 76.30 124.65 76.57
  Q 124.76 76.63 124.87 76.58
  Q 125.01 76.51 125.03 76.36
  Q 125.04 76.21 125.19 76.15
  Z
  M 99.88 88.48
  A 0.55 0.55 0.0 0 1 100.00 89.36
  L 95.15 93.99
  Q 94.69 94.43 95.02 94.98
  C 97.53 99.17 100.85 93.93 104.29 95.63
  C 107.29 97.11 109.54 97.37 112.55 95.64
  A 0.38 0.37 -12.5 0 1 113.11 95.99
  Q 112.90 98.50 111.69 100.30
  A 1.95 1.92 12.7 0 1 110.35 101.13
  Q 104.40 101.92 100.14 101.68
  Q 98.28 101.57 96.85 100.11
  A 1.28 1.27 -31.6 0 0 95.53 99.80
  Q 92.53 100.83 89.21 101.28
  Q 88.53 101.37 88.62 102.05
  C 90.44 114.78 102.20 113.96 109.82 107.21
  Q 110.90 106.26 111.33 105.04
  Q 112.89 100.68 115.88 97.14
  C 117.18 95.61 118.56 97.05 120.09 95.88
  Q 120.54 95.53 120.14 95.12
  Q 119.26 94.24 118.88 93.10
  A 0.72 0.71 73.9 0 0 118.04 92.63
  L 116.03 93.09
  A 1.54 1.53 -16.8 0 1 114.24 92.13
  C 113.11 89.05 114.46 88.16 115.36 85.52
  Q 115.54 85.01 115.42 84.47
  Q 115.02 82.76 115.80 81.14
  A 1.65 1.65 0.0 0 0 114.84 78.86
  Q 109.57 77.06 103.17 76.56
  C 100.09 76.33 96.96 77.10 93.88 77.18
  Q 93.12 77.20 93.12 77.96
  L 93.12 78.39
  A 0.27 0.27 0.0 0 0 93.40 78.66
  L 95.95 78.53
  Q 97.52 78.45 97.51 80.03
  Q 97.51 80.22 97.45 80.40
  Q 96.99 81.76 95.59 81.44
  C 92.13 80.64 91.82 82.59 90.82 85.02
  Q 89.47 88.28 88.46 91.59
  Q 88.17 92.53 89.11 92.80
  L 92.64 93.84
  A 1.14 1.12 -67.3 0 0 93.94 93.30
  C 94.47 92.36 94.92 91.55 95.93 91.05
  Q 97.37 90.32 98.01 88.83
  Q 98.20 88.40 98.65 88.31
  Q 99.29 88.16 99.88 88.48
  Z
  M 122.22 76.89
  A 1.02 1.02 0.0 0 0 121.30 76.54
  L 118.65 76.91
  A 1.02 1.02 0.0 0 0 118.14 78.70
  L 121.53 81.55
  A 1.02 1.02 0.0 0 0 123.16 81.06
  L 123.68 79.33
  A 1.02 1.02 0.0 0 0 123.48 78.38
  L 122.22 76.89
  Z
  M 120.70 90.07
  Q 121.54 89.30 122.66 88.82
  Q 123.70 88.37 122.57 88.29
  Q 120.94 88.17 120.41 89.89
  A 0.18 0.18 0.0 0 0 120.70 90.07
  Z
  M 122.50 95.00
  L 124.92 90.52
  A 0.12 0.12 0.0 0 0 124.88 90.35
  L 124.85 90.34
  A 2.55 2.33 -61.6 0 0 121.59 91.47
  L 121.47 91.69
  A 2.55 2.33 -61.6 0 0 122.31 95.04
  L 122.34 95.05
  A 0.12 0.12 0.0 0 0 122.50 95.00
  Z
  M 70.98 95.77
  Q 70.39 95.99 70.01 96.75
  Q 69.75 97.27 70.32 97.14
  Q 71.79 96.80 72.17 95.23
  Q 72.31 94.61 71.83 95.03
  L 70.98 95.77
  L 71.69 94.70
  Q 71.96 94.29 71.81 93.83
  Q 71.57 93.13 70.75 92.69
  Q 70.53 92.57 70.30 92.69
  Q 70.18 92.76 70.15 92.90
  Q 70.03 93.72 69.47 93.13
  Q 69.09 92.73 68.55 93.08
  Q 67.83 93.55 67.66 94.33
  Q 67.49 95.05 66.73 95.20
  Q 65.83 95.39 66.60 95.91
  L 68.07 96.90
  Q 68.57 97.24 68.99 96.80
  Q 69.74 96.02 70.98 95.77
  Z
  M 62.13 98.63
  Q 59.76 98.83 57.43 99.27
  Q 57.42 99.28 57.42 99.29
  L 57.44 99.54
  A 0.28 0.28 0.0 0 0 57.72 99.79
  Q 60.48 99.75 63.30 99.96
  Q 64.63 100.07 64.94 98.88
  A 0.41 0.41 0.0 0 0 64.62 98.38
  Q 62.13 97.86 62.13 98.63
  Z
  M 153.75 101.91
  Q 153.26 102.94 153.01 104.14
  A 1.99 1.98 -16.7 0 1 152.45 105.17
  Q 151.93 105.69 151.56 106.32
  Q 151.30 106.76 151.44 107.26
  Q 151.54 107.63 151.84 107.85
  Q 152.23 108.14 152.52 107.76
  Q 154.39 105.34 155.94 103.04
  Q 156.76 101.83 156.94 100.16
  A 0.78 0.77 -15.9 0 0 155.69 99.47
  Q 154.44 100.45 153.75 101.91
  Z
  M 154.56 109.02
  Q 153.83 109.41 154.07 110.24
  A 1.10 1.10 0.0 0 0 155.80 110.79
  Q 159.81 107.67 161.75 101.45
  A 0.25 0.24 -83.5 0 0 161.50 101.13
  Q 161.28 101.16 161.07 101.09
  Q 160.53 100.91 160.31 101.43
  Q 159.42 103.47 157.66 105.00
  Q 156.14 106.32 155.21 108.34
  Q 155.00 108.79 154.56 109.02
  Z
  M 147.00 105.21
  Q 146.96 104.83 147.16 104.55
  L 147.15 104.92
  A 0.25 0.25 0.0 0 0 147.62 105.03
  Q 148.35 103.56 147.18 101.69
  A 1.14 1.14 0.0 0 0 145.57 101.35
  Q 144.11 102.36 142.19 102.25
  A 0.82 0.81 -18.6 0 0 141.52 103.59
  Q 142.91 105.19 144.35 104.46
  Q 144.64 104.31 144.88 104.52
  Q 145.59 105.14 145.70 105.91
  Q 145.81 106.65 146.38 106.17
  Q 146.77 105.83 147.00 105.21
  Z
  M 62.94 102.51
  Q 62.75 102.35 62.50 102.36
  Q 61.78 102.39 61.98 103.08
  Q 62.19 103.83 62.70 104.39
  Q 63.35 105.12 63.88 104.30
  L 64.50 103.35
  Q 64.91 102.71 64.23 102.37
  Q 63.74 102.12 63.34 102.50
  Q 63.14 102.69 62.94 102.51
  Z
  M 47.03 107.23
  Q 46.98 107.26 46.97 107.31
  Q 46.94 107.56 47.17 107.71
  Q 50.30 109.66 52.04 112.15
  Q 54.45 115.61 58.07 117.59
  C 59.43 118.33 60.55 119.73 60.55 121.35
  Q 60.55 122.11 61.29 122.26
  C 63.78 122.80 68.25 122.29 69.02 119.25
  C 69.71 116.54 70.12 114.10 69.15 111.33
  Q 68.01 108.11 68.47 104.59
  Q 68.93 101.20 67.25 104.18
  Q 65.37 107.52 62.09 110.87
  Q 61.21 111.76 60.53 110.72
  L 60.21 110.23
  Q 59.57 109.27 60.32 108.38
  Q 60.80 107.81 60.54 107.19
  A 0.79 0.78 -30.6 0 0 59.35 106.89
  Q 58.07 107.89 56.50 107.95
  Q 55.74 107.97 55.23 108.52
  L 53.01 110.85
  A 0.74 0.74 0.0 0 1 51.96 110.88
  L 45.81 104.99
  A 0.22 0.21 30.4 0 0 45.45 105.08
  L 45.19 105.93
  Q 45.13 106.13 45.26 106.27
  Q 45.96 107.05 47.00 107.11
  Q 47.23 107.12 47.03 107.23
  Z
  M 111.23 113.38
  Q 107.35 114.07 103.78 115.60
  C 102.75 116.04 101.67 116.23 100.58 116.46
  A 0.34 0.34 0.0 0 0 100.53 117.12
  Q 105.58 118.92 110.04 116.87
  Q 114.19 114.96 118.16 113.13
  Q 120.74 111.95 123.01 109.37
  Q 123.34 109.00 123.02 108.63
  C 121.43 106.81 117.69 104.20 114.89 104.29
  Q 114.38 104.31 114.03 104.68
  C 112.86 105.87 111.67 107.06 110.83 108.50
  Q 109.56 110.66 106.69 112.18
  A 0.21 0.21 0.0 0 0 106.81 112.58
  L 110.95 112.23
  A 0.30 0.29 76.8 0 1 111.25 112.42
  L 111.47 112.95
  Q 111.62 113.31 111.23 113.38
  Z
  M 141.45 109.84
  L 143.76 107.18
  A 0.54 0.54 0.0 0 0 143.71 106.42
  L 143.57 106.30
  A 2.18 2.15 41.0 0 0 140.51 106.50
  L 140.32 106.72
  A 2.18 2.15 41.0 0 0 140.55 109.77
  L 140.69 109.89
  A 0.54 0.54 0.0 0 0 141.45 109.84
  Z
  M 141.45 115.60
  C 140.70 113.48 140.35 111.10 138.01 110.13
  Q 137.55 109.95 137.42 109.47
  Q 137.06 108.22 137.66 106.78
  A 0.54 0.54 0.0 0 0 136.88 106.11
  L 132.55 108.73
  Q 131.99 109.07 132.13 109.71
  Q 133.09 114.08 134.82 117.72
  A 2.70 2.69 51.6 0 1 134.50 120.55
  Q 133.74 121.51 133.13 122.65
  Q 132.22 124.39 133.75 125.51
  Q 137.65 128.37 142.88 129.31
  Q 143.63 129.45 143.76 128.70
  L 144.34 125.54
  Q 144.47 124.88 143.80 124.90
  L 139.99 124.98
  Q 139.17 125.00 138.75 124.28
  L 138.59 124.02
  A 0.45 0.44 72.8 0 1 138.94 123.35
  Q 146.52 122.81 152.41 118.79
  Q 154.00 117.70 153.91 115.88
  Q 153.60 109.86 147.21 107.71
  Q 146.37 107.43 145.93 108.19
  Q 141.94 110.26 142.59 113.59
  Q 142.76 114.46 142.40 115.28
  Q 142.28 115.54 142.07 115.74
  Q 141.65 116.15 141.45 115.60
  Z
  M 91.69 113.80
  Q 91.90 112.89 91.04 112.32
  Q 90.46 111.93 89.90 112.36
  Q 89.16 112.92 89.43 113.79
  Q 89.77 114.92 90.96 114.88
  A 0.56 0.55 -1.5 0 1 91.54 115.42
  Q 91.60 117.87 93.93 117.22
  Q 95.15 116.89 96.44 116.72
  Q 97.04 116.64 97.34 116.11
  Q 97.53 115.76 97.47 115.39
  Q 97.37 114.80 96.78 114.91
  Q 96.41 114.98 96.23 114.66
  Q 96.12 114.46 95.93 114.32
  Q 95.05 113.67 93.87 113.38
  A 0.68 0.66 -56.6 0 0 93.27 113.51
  Q 92.75 113.93 92.04 114.14
  Q 91.58 114.27 91.69 113.80
  Z
  M 81.45 114.99
  Q 80.60 115.88 79.69 116.10
  Q 78.07 116.48 79.36 117.54
  Q 84.29 121.59 87.85 116.75
  Q 88.21 116.31 88.13 115.75
  Q 88.06 115.28 87.62 115.10
  Q 86.75 114.75 86.64 113.76
  Q 86.58 113.24 86.06 113.23
  Q 83.20 113.15 81.45 114.99
  Z
  M 96.22 122.42
  Q 96.23 122.48 96.28 122.50
  Q 96.53 122.62 96.78 122.47
  Q 97.99 121.73 99.12 122.41
  Q 99.53 122.65 99.66 122.20
  Q 100.29 120.00 98.36 119.07
  A 0.80 0.80 0.0 0 0 97.60 119.10
  Q 96.54 119.73 95.33 119.90
  A 0.57 0.57 0.0 0 0 94.86 120.62
  Q 95.14 121.62 96.01 122.12
  Q 96.18 122.22 96.22 122.42
  Z
  M 61.21 129.70
  A 0.30 0.30 0.0 0 0 61.42 130.17
  Q 67.14 130.76 71.39 128.65
  Q 73.64 127.53 72.80 125.16
  Q 72.41 124.07 71.93 122.73
  A 1.71 1.71 0.0 0 0 69.60 121.75
  Q 66.21 123.34 62.37 124.50
  A 1.37 1.37 0.0 0 0 61.54 126.43
  Q 62.38 128.10 61.21 129.70
  Z
  M 97.96 127.33
  Q 98.00 127.49 98.14 127.58
  Q 98.58 127.87 98.77 127.38
  L 98.92 126.97
  Q 99.29 125.98 98.26 126.21
  Q 97.42 126.39 96.70 126.00
  Q 94.18 124.62 92.93 121.58
  Q 92.84 121.36 92.66 121.52
  L 92.36 121.79
  Q 92.28 121.85 92.31 121.95
  Q 93.35 126.52 97.80 127.18
  Q 97.93 127.20 97.96 127.33
  Z
  M 80.74 127.74
  Q 79.24 129.69 77.09 130.73
  Q 76.63 130.95 76.16 130.77
  C 74.90 130.29 74.21 129.85 72.74 130.13
  Q 66.71 131.26 60.84 132.83
  A 0.48 0.47 80.6 0 0 60.49 133.33
  Q 61.11 142.59 70.02 144.34
  Q 76.79 145.66 82.34 143.98
  A 2.53 2.52 -4.9 0 0 84.10 141.90
  Q 84.92 135.50 84.85 129.00
  Q 84.83 127.12 83.60 126.75
  Q 84.55 124.32 83.84 123.02
  A 0.96 0.96 0.0 0 0 82.08 123.21
  L 80.74 127.74
  Z
  M 130.90 125.76
  L 129.78 129.20
  A 2.14 2.13 -59.8 0 0 130.36 131.41
  Q 134.39 135.14 140.35 136.99
  Q 142.35 137.61 141.27 135.81
  Q 140.33 134.26 141.86 132.91
  A 0.91 0.91 0.0 0 0 141.66 131.41
  Q 137.20 129.26 132.31 125.33
  Q 131.30 124.52 130.90 125.76
  Z"
/>
<path fill="#eae8eb" fill-opacity="0.961" d="
  M 73.98 82.81
  L 71.98 83.55
  L 71.86 82.85
  Q 71.79 82.42 71.36 82.40
  L 68.54 82.27
  A 3.74 3.74 0.0 0 0 65.08 84.22
  L 63.82 86.54
  Q 63.61 86.91 63.91 87.22
  Q 64.53 87.86 65.60 88.19
  Q 64.81 88.37 64.79 89.30
  Q 64.78 89.85 64.23 89.91
  Q 64.00 89.93 63.83 89.77
  Q 63.52 89.47 63.09 89.50
  Q 61.97 89.59 62.16 90.21
  Q 61.90 91.01 61.21 91.49
  Q 60.85 91.80 60.85 92.19
  A 0.26 0.26 0.0 0 0 61.25 92.40
  Q 61.44 92.28 61.61 92.40
  Q 61.78 92.53 61.75 92.74
  Q 61.63 93.76 62.10 94.89
  L 61.21 94.53
  Q 60.71 94.32 60.42 94.78
  Q 59.96 95.52 60.46 96.32
  Q 59.22 96.22 59.17 95.64
  A 0.76 0.76 0.0 0 0 57.85 95.20
  Q 56.67 96.48 55.49 95.92
  Q 55.05 95.71 55.26 95.26
  Q 55.76 94.21 55.26 92.79
  A 0.06 0.06 0.0 0 0 55.17 92.76
  Q 54.95 92.94 54.68 92.86
  Q 54.28 92.75 54.35 93.18
  Q 54.44 93.81 53.86 94.05
  Q 53.48 94.22 53.33 94.60
  Q 52.96 95.55 53.39 96.37
  Q 53.53 96.65 53.39 96.94
  Q 52.48 98.80 50.62 97.91
  A 1.03 1.03 0.0 0 1 50.16 96.49
  Q 50.66 95.56 50.65 94.46
  A 0.34 0.34 0.0 0 0 50.31 94.12
  L 48.80 94.12
  Q 48.10 94.12 48.19 93.43
  Q 48.28 92.61 47.50 92.86
  A 0.17 0.17 0.0 0 0 47.39 93.06
  Q 47.42 93.21 47.35 93.37
  Q 47.25 93.59 46.98 93.60
  Q 46.79 93.62 46.59 93.61
  Q 45.81 93.57 46.35 94.14
  Q 46.54 94.34 46.77 94.35
  Q 47.36 94.38 47.34 94.97
  L 47.30 96.20
  Q 47.15 96.12 47.03 95.90
  Q 46.83 95.54 46.43 95.63
  Q 45.67 95.81 45.22 96.38
  A 0.53 0.53 0.0 0 0 45.71 97.23
  Q 47.09 97.02 47.30 96.20
  Q 47.66 96.38 47.66 96.97
  Q 47.66 97.49 47.25 97.80
  Q 45.72 98.91 44.02 97.81
  Q 43.51 97.48 43.62 96.89
  Q 43.64 96.76 43.65 96.63
  Q 43.66 96.46 43.49 96.42
  Q 41.37 95.94 40.64 97.69
  A 0.33 0.32 -76.7 0 1 40.33 97.89
  Q 40.21 97.89 40.08 97.86
  Q 39.72 97.79 40.00 98.03
  Q 40.04 98.06 40.04 98.11
  Q 40.04 98.28 39.88 98.32
  Q 39.49 98.41 39.07 98.38
  A 0.53 0.51 87.8 0 1 38.60 97.93
  Q 38.58 97.72 38.66 97.52
  Q 38.69 97.46 38.62 97.43
  Q 37.92 97.12 37.43 97.69
  A 0.37 0.37 0.0 0 1 36.79 97.49
  Q 36.68 96.66 35.77 96.88
  Q 35.51 96.78 35.37 96.94
  Q 36.68 96.67 36.67 97.47
  Q 34.22 96.50 34.92 99.63
  Q 33.87 99.68 33.63 96.99
  Q 38.98 90.85 46.29 85.33
  Q 46.89 84.89 48.49 85.07
  Q 48.98 85.12 49.44 84.94
  Q 51.77 84.03 54.03 85.45
  Q 55.69 86.48 55.48 84.54
  C 55.19 81.91 55.58 78.27 58.26 76.82
  Q 59.88 75.94 61.38 74.85
  C 62.48 74.04 62.93 72.98 63.88 72.10
  Q 64.46 71.58 64.78 72.29
  Q 65.92 74.76 65.03 77.35
  Q 64.87 77.82 65.36 77.91
  Q 67.35 78.28 68.77 77.37
  Q 69.28 77.05 69.29 76.45
  Q 69.36 72.69 73.25 70.85
  C 74.63 70.20 75.67 69.13 76.85 68.21
  Q 78.09 67.24 78.69 68.69
  Q 78.97 69.35 79.08 70.05
  A 2.78 2.77 74.8 0 1 77.38 73.03
  L 75.01 74.01
  A 2.62 2.61 73.8 0 0 73.43 76.89
  Q 73.76 78.74 73.49 80.54
  A 1.40 1.38 72.2 0 1 73.10 81.31
  Q 72.68 81.72 72.26 82.09
  Q 71.56 82.72 72.50 82.75
  L 73.98 82.81
  Z
  M 62.73 85.98
  Q 61.74 84.58 62.42 81.13
  Q 62.74 79.54 61.18 80.00
  L 60.84 80.10
  Q 59.59 80.47 59.43 81.77
  Q 59.20 83.70 59.59 85.67
  A 1.67 1.67 0.0 0 0 61.32 87.02
  L 62.25 86.97
  Q 63.39 86.91 62.73 85.98
  Z
  M 51.07 89.64
  Q 51.09 90.42 50.52 91.09
  A 0.54 0.53 37.0 0 0 50.64 91.89
  Q 51.71 92.60 52.96 92.01
  Q 54.14 91.46 54.14 90.36
  Q 54.14 88.92 52.72 88.05
  A 0.63 0.63 0.0 0 0 52.14 88.01
  L 51.47 88.30
  Q 50.82 88.58 50.86 87.87
  Q 50.96 86.18 49.15 85.68
  A 1.99 1.99 0.0 0 0 47.46 85.99
  Q 45.12 87.71 42.69 90.14
  Q 41.94 90.89 41.91 91.86
  Q 41.86 93.35 43.85 93.52
  A 2.69 2.69 0.0 0 0 45.93 92.81
  L 49.89 89.15
  Q 51.01 88.11 51.07 89.64
  Z"
/>
<path fill="#eae8eb" fill-opacity="0.961" d="
  M 81.28 70.22
  L 81.06 72.47
  A 0.34 0.34 0.0 0 1 80.39 72.49
  Q 80.36 72.32 80.41 72.05
  Q 80.44 70.25 81.28 70.22
  Z"
/>
<path fill="#eae8eb" fill-opacity="0.961" d="
  M 150.44 82.25
  L 148.62 84.65
  A 0.99 0.99 0.0 0 1 146.96 84.51
  L 145.50 81.74
  A 0.99 0.99 0.0 0 1 145.71 80.54
  L 148.15 78.35
  A 0.99 0.99 0.0 0 1 149.75 78.77
  L 150.60 81.35
  A 0.99 0.99 0.0 0 1 150.44 82.25
  Z
  M 147.6217 82.3421
  A 1.09 0.92 120.2 0 0 148.9651 81.8628
  A 1.09 0.92 120.2 0 0 148.7183 80.4579
  A 1.09 0.92 120.2 0 0 147.3749 80.9372
  A 1.09 0.92 120.2 0 0 147.6217 82.3421
  Z"
/>
<path fill="#f9faf8" d="
  M 110.16 79.71
  Q 112.40 80.43 113.60 82.44
  A 0.73 0.73 0.0 0 1 113.22 83.50
  L 112.90 83.62
  A 0.76 0.75 -32.2 0 1 112.13 83.45
  Q 110.59 81.92 108.68 82.58
  Q 108.18 82.76 108.08 82.23
  Q 107.89 81.22 108.13 80.12
  Q 108.27 79.46 108.94 79.37
  Q 109.30 79.32 109.63 79.49
  Q 109.88 79.62 110.16 79.71
  Z"
/>
<path fill="#f9faf8" d="
  M 142.75 87.76
  L 138.95 91.59
  A 0.71 0.71 0.0 0 1 137.87 91.51
  L 134.64 86.98
  A 0.71 0.71 0.0 0 1 134.69 86.10
  L 138.96 81.29
  A 0.71 0.71 0.0 0 1 140.13 81.45
  L 142.88 86.94
  A 0.71 0.71 0.0 0 1 142.75 87.76
  Z
  M 138.30 86.75
  Q 138.80 87.79 139.91 87.24
  Q 141.03 86.69 140.06 85.89
  L 139.24 85.23
  Q 138.78 84.85 138.44 85.35
  Q 137.95 86.05 138.30 86.75
  Z"
/>
<path fill="#f9faf8" d="
  M 96.01 88.23
  L 95.12 89.21
  A 1.45 1.45 0.0 0 1 93.15 89.37
  L 91.49 88.06
  A 1.45 1.45 0.0 0 1 91.14 86.20
  L 92.95 83.06
  A 1.45 1.45 0.0 0 1 95.63 83.49
  L 96.36 86.96
  A 1.45 1.45 0.0 0 1 96.01 88.23
  Z"
/>
<path fill="#f9faf8" d="
  M 108.98 85.14
  L 110.29 89.20
  A 0.73 0.73 0.0 0 1 109.87 90.10
  L 106.52 91.46
  A 0.73 0.73 0.0 0 1 105.56 91.03
  L 104.76 88.87
  A 0.73 0.73 0.0 0 1 104.90 88.13
  L 107.74 84.88
  A 0.73 0.73 0.0 0 1 108.98 85.14
  Z"
/>
<path fill="#eae8eb" fill-opacity="0.961" d="
  M 149.12 88.95
  L 150.77 91.54
  A 0.80 0.80 0.0 0 1 150.84 92.28
  L 149.91 94.48
  A 0.80 0.80 0.0 0 1 148.45 94.52
  L 147.02 91.65
  A 0.80 0.80 0.0 0 1 146.99 91.02
  L 147.70 89.11
  A 0.80 0.80 0.0 0 1 149.12 88.95
  Z"
/>
<path fill="#eae8eb" fill-opacity="0.961" d="
  M 70.98 95.77
  Q 69.74 96.02 68.99 96.80
  Q 68.57 97.24 68.07 96.90
  L 66.60 95.91
  Q 65.83 95.39 66.73 95.20
  Q 67.49 95.05 67.66 94.33
  Q 67.83 93.55 68.55 93.08
  Q 69.09 92.73 69.47 93.13
  Q 70.03 93.72 70.15 92.90
  Q 70.18 92.76 70.30 92.69
  Q 70.53 92.57 70.75 92.69
  Q 71.57 93.13 71.81 93.83
  Q 71.96 94.29 71.69 94.70
  L 70.98 95.77
  Z"
/>
<path fill="#eae8eb" fill-opacity="0.961" d="
  M 70.98 95.77
  L 71.83 95.03
  Q 72.31 94.61 72.17 95.23
  Q 71.79 96.80 70.32 97.14
  Q 69.75 97.27 70.01 96.75
  Q 70.39 95.99 70.98 95.77
  Z"
/>
<path fill="#eae8eb" fill-opacity="0.961" d="
  M 62.13 98.63
  Q 62.13 97.86 64.62 98.38
  A 0.41 0.41 0.0 0 1 64.94 98.88
  Q 64.63 100.07 63.30 99.96
  Q 60.48 99.75 57.72 99.79
  A 0.28 0.28 0.0 0 1 57.44 99.54
  L 57.42 99.29
  Q 57.42 99.28 57.43 99.27
  Q 59.76 98.83 62.13 98.63
  Z"
/>
<path fill="#eae8eb" fill-opacity="0.961" d="
  M 147.16 104.55
  Q 147.17 103.61 146.86 103.00
  Q 146.57 102.47 146.43 103.06
  Q 146.04 104.64 147.00 105.21
  Q 146.77 105.83 146.38 106.17
  Q 145.81 106.65 145.70 105.91
  Q 145.59 105.14 144.88 104.52
  Q 144.64 104.31 144.35 104.46
  Q 142.91 105.19 141.52 103.59
  A 0.82 0.81 -18.6 0 1 142.19 102.25
  Q 144.11 102.36 145.57 101.35
  A 1.14 1.14 0.0 0 1 147.18 101.69
  Q 148.35 103.56 147.62 105.03
  A 0.25 0.25 0.0 0 1 147.15 104.92
  L 147.16 104.55
  Z"
/>
<path fill="#eae8eb" fill-opacity="0.961" d="
  M 87.85 116.75
  Q 87.44 115.31 85.97 115.09
  Q 85.35 115.00 85.09 115.57
  Q 84.93 115.93 84.53 116.12
  Q 83.90 116.44 84.54 116.76
  L 85.50 117.22
  Q 86.40 117.66 85.44 117.94
  Q 84.77 118.13 84.07 118.01
  Q 83.43 117.91 83.11 117.34
  Q 82.36 116.01 83.65 114.79
  Q 83.77 114.69 83.74 114.53
  Q 83.71 114.38 83.55 114.30
  Q 83.29 114.18 83.08 114.39
  Q 82.44 115.04 81.45 114.99
  Q 83.20 113.15 86.06 113.23
  Q 86.58 113.24 86.64 113.76
  Q 86.75 114.75 87.62 115.10
  Q 88.06 115.28 88.13 115.75
  Q 88.21 116.31 87.85 116.75
  Z"
/>
<path fill="#eae8eb" fill-opacity="0.961" d="
  M 83.60 126.75
  Q 82.14 125.30 80.74 127.74
  L 82.08 123.21
  A 0.96 0.96 0.0 0 1 83.84 123.02
  Q 84.55 124.32 83.60 126.75
  Z"
/>
<path fill="#eae8eb" fill-opacity="0.961" d="
  M 109.66 164.18
  C 110.61 165.75 109.58 167.46 110.47 168.82
  A 0.74 0.74 0.0 0 1 109.90 169.97
  C 108.19 170.07 106.72 169.50 105.03 169.92
  Q 102.40 170.58 100.49 168.11
  Q 99.86 167.31 100.88 167.43
  C 103.23 167.71 103.62 163.92 103.71 162.31
  A 1.84 1.83 -74.2 0 1 106.41 160.80
  C 107.57 161.42 109.15 163.32 109.66 164.18
  Z
  M 108.64 164.08
  A 0.64 0.64 0.0 0 0 108.32 163.32
  L 106.34 162.34
  A 0.64 0.64 0.0 0 0 105.43 162.79
  L 104.37 168.20
  A 0.64 0.64 0.0 0 0 104.92 168.95
  L 106.55 169.15
  A 0.64 0.64 0.0 0 0 107.24 168.71
  L 108.64 164.08
  Z"
/>
<path fill="#eae8eb" fill-opacity="0.961" d="
  M 79.64 163.70
  Q 81.01 165.54 80.25 168.08
  Q 80.16 168.37 80.45 168.42
  L 81.48 168.60
  A 0.34 0.34 0.0 0 0 81.86 168.37
  Q 82.62 165.97 82.37 163.39
  Q 82.30 162.67 82.99 162.41
  Q 84.07 162.01 85.02 162.56
  A 0.54 0.53 30.1 0 1 85.22 163.29
  C 84.30 164.85 83.07 167.56 84.73 169.03
  A 0.49 0.48 59.2 0 1 84.52 169.87
  Q 80.76 170.71 77.98 169.32
  Q 77.45 169.05 77.87 168.64
  Q 79.42 167.12 78.29 165.11
  Q 77.95 164.50 77.51 165.04
  Q 76.57 166.18 77.02 167.55
  A 1.44 1.43 -23.8 0 1 76.35 169.25
  C 75.20 169.89 73.87 169.88 72.95 170.91
  Q 72.33 171.63 71.69 172.38
  A 0.81 0.81 0.0 0 1 70.34 172.22
  C 69.09 169.64 63.95 170.00 61.57 169.95
  C 61.05 169.95 60.58 169.78 60.16 169.47
  Q 59.70 169.12 59.25 169.48
  C 57.97 170.51 56.64 169.70 55.30 169.42
  Q 54.37 169.23 53.38 169.58
  Q 51.33 170.32 49.33 169.58
  A 0.84 0.83 -80.2 0 1 48.79 168.81
  L 48.72 163.28
  A 2.42 2.41 -0.5 0 1 51.13 160.84
  Q 53.40 160.83 55.07 162.65
  Q 55.44 163.05 55.46 163.59
  Q 55.49 164.15 55.86 164.61
  Q 56.18 165.01 56.69 164.92
  L 57.93 164.69
  Q 58.29 164.62 58.56 164.88
  Q 59.98 166.27 61.45 164.97
  A 0.50 0.49 -19.5 0 0 61.62 164.62
  Q 61.68 160.58 66.27 161.51
  Q 68.27 161.91 67.07 163.43
  Q 66.73 163.87 67.43 166.10
  Q 67.69 166.93 68.17 166.20
  Q 68.87 165.10 70.15 164.62
  Q 70.61 164.44 70.53 164.93
  Q 70.52 165.00 70.57 165.04
  Q 70.73 165.14 70.89 165.03
  Q 72.18 164.15 73.41 164.77
  Q 73.80 164.97 73.92 165.40
  Q 74.31 166.85 73.78 168.27
  A 0.26 0.26 0.0 0 0 74.01 168.62
  L 74.43 168.62
  Q 74.98 168.63 75.17 168.11
  Q 75.90 166.15 75.61 163.78
  A 1.67 1.66 -11.1 0 1 76.83 161.98
  Q 78.43 161.55 78.47 162.87
  Q 78.49 163.38 78.99 163.38
  Q 79.23 163.38 79.46 163.36
  Q 79.76 163.33 79.51 163.49
  Q 79.41 163.55 79.52 163.60
  Q 79.59 163.63 79.64 163.70
  Z
  M 58.96 167.99
  Q 58.83 168.06 58.83 168.21
  Q 58.87 168.85 59.47 169.05
  A 0.47 0.46 -62.2 0 0 59.98 168.89
  Q 60.70 167.98 60.09 167.07
  A 0.43 0.42 -37.1 0 0 59.47 166.99
  Q 59.16 167.25 59.16 167.66
  Q 59.16 167.89 58.96 167.99
  Z"
/>
<path fill="#eae8eb" fill-opacity="0.961" d="
  M 149.82 164.28
  L 149.20 164.32
  Q 148.53 164.36 148.35 165.01
  L 147.85 166.85
  Q 147.56 167.92 148.36 167.15
  Q 149.57 166.00 149.82 164.28
  Q 151.35 164.28 152.46 165.44
  Q 152.93 165.94 152.65 166.56
  L 151.67 168.77
  A 1.32 1.31 -82.5 0 1 150.67 169.54
  Q 145.86 170.32 140.99 169.46
  Q 140.44 169.36 139.92 169.59
  Q 139.26 169.88 138.55 169.92
  Q 137.95 169.95 137.52 169.53
  Q 136.09 168.11 135.46 165.91
  Q 135.02 164.37 133.49 164.53
  Q 131.74 164.71 132.96 163.45
  Q 135.90 160.39 140.17 161.29
  C 142.62 161.81 145.07 161.54 147.57 162.12
  Q 148.04 162.23 148.36 162.60
  L 149.82 164.28
  Z
  M 141.28 163.48
  Q 140.12 164.76 141.25 165.95
  Q 141.81 166.54 141.87 165.73
  Q 141.95 164.63 142.60 163.87
  Q 142.92 163.48 142.49 163.22
  Q 142.35 163.14 142.19 163.12
  A 1.10 1.08 -65.9 0 0 141.28 163.48
  Z
  M 145.8260 163.5889
  A 0.31 0.31 0.0 0 0 145.5771 163.2280
  L 144.9869 163.1197
  A 0.31 0.31 0.0 0 0 144.6260 163.3687
  L 143.7740 168.0111
  A 0.31 0.31 0.0 0 0 144.0229 168.3720
  L 144.6131 168.4803
  A 0.31 0.31 0.0 0 0 144.9740 168.2313
  L 145.8260 163.5889
  Z
  M 138.1216 169.0783
  A 1.52 1.16 87.3 0 0 139.2087 167.5054
  A 1.52 1.16 87.3 0 0 137.9784 166.0417
  A 1.52 1.16 87.3 0 0 136.8913 167.6146
  A 1.52 1.16 87.3 0 0 138.1216 169.0783
  Z"
/>
<path fill="#eae8eb" fill-opacity="0.961" d="
  M 97.64 169.65
  L 89.00 169.92
  A 1.06 1.06 0.0 0 1 87.92 168.67
  L 89.04 162.41
  A 1.06 1.06 0.0 0 1 90.62 161.68
  L 98.02 165.97
  A 1.06 1.06 0.0 0 1 98.55 166.81
  L 98.67 168.52
  A 1.06 1.06 0.0 0 1 97.64 169.65
  Z"
/>
<path fill="#eae8eb" fill-opacity="0.961" d="
  M 122.82 165.90
  C 121.01 165.44 120.37 167.59 119.70 168.79
  A 0.78 0.76 21.9 0 1 118.81 169.16
  L 118.50 169.08
  A 0.31 0.31 0.0 0 1 118.32 168.61
  Q 118.90 167.67 118.45 166.77
  Q 118.20 166.27 117.64 166.29
  Q 115.24 166.39 115.44 168.88
  Q 115.48 169.42 114.95 169.57
  C 113.84 169.87 112.68 169.06 112.59 167.88
  Q 112.51 166.79 112.10 165.78
  Q 111.76 164.94 112.65 164.88
  Q 120.76 164.30 129.64 165.10
  Q 130.09 165.14 129.81 165.49
  L 128.46 167.24
  Q 128.06 167.75 128.05 168.40
  Q 128.00 170.44 127.28 171.95
  Q 125.61 175.46 124.82 171.65
  Q 124.31 169.23 123.67 166.74
  A 1.18 1.18 0.0 0 0 122.82 165.90
  Z
  M 126.1371 169.1038
  A 1.33 1.02 101.4 0 0 127.3999 168.0016
  A 1.33 1.02 101.4 0 0 126.6629 166.4962
  A 1.33 1.02 101.4 0 0 125.4001 167.5984
  A 1.33 1.02 101.4 0 0 126.1371 169.1038
  Z"
/>
<ellipse fill="#eae8eb" fill-opacity="0.961" cx="0.00" cy="0.00" transform="translate(112.17,179.48) rotate(-0.3)" rx="6.56" ry="0.67"/>
<ellipse fill="#f9faf8" cx="0.00" cy="0.00" transform="translate(91.03,179.63) rotate(-0.2)" rx="8.16" ry="0.56"/>
</svg>
