<?xml version="1.0" encoding="UTF-8" standalone="no"?>
<!DOCTYPE svg PUBLIC "-//W3C//DTD SVG 1.1//EN" "http://www.w3.org/Graphics/SVG/1.1/DTD/svg11.dtd">
<svg xmlns="http://www.w3.org/2000/svg" version="1.1" viewBox="0.00 0.00 200.00 200.00">
<path fill="#182715" d="
  M 110.00 18.18
  Q 113.85 15.92 117.39 18.33
  Q 119.64 19.86 119.26 23.22
  Q 118.63 28.67 117.78 34.59
  Q 117.73 34.94 117.38 34.89
  L 110.07 33.89
  A 0.34 0.34 0.0 0 1 109.77 33.50
  L 110.98 25.02
  Q 111.09 24.24 110.32 24.06
  L 109.99 23.98
  A 0.53 0.53 0.0 0 0 109.35 24.42
  L 108.19 32.99
  Q 108.11 33.59 107.50 33.52
  L 100.72 32.64
  Q 100.13 32.56 100.21 31.96
  L 102.32 16.45
  Q 102.41 15.79 103.07 15.89
  L 108.77 16.74
  Q 109.40 16.83 109.50 17.47
  Q 109.52 17.61 109.47 17.74
  Q 109.13 18.69 110.00 18.18
  Z"
/>
<path fill="#182715" d="
  M 88.69 25.55
  Q 89.04 25.50 88.92 25.17
  L 88.74 24.69
  Q 88.70 24.56 88.56 24.56
  Q 85.03 24.63 81.94 26.43
  A 0.20 0.20 0.0 0 1 81.64 26.28
  L 80.83 19.48
  Q 80.79 19.13 81.10 18.96
  C 86.27 16.18 97.51 13.71 97.44 23.20
  Q 97.43 23.81 97.69 24.37
  Q 99.13 27.47 99.07 31.49
  Q 99.06 31.93 98.67 32.14
  Q 94.29 34.50 91.58 32.29
  Q 91.26 32.03 90.98 32.34
  C 88.21 35.35 81.22 35.73 81.72 29.73
  C 81.97 26.79 86.35 25.83 88.69 25.55
  Z
  M 89.70 26.56
  Q 89.40 26.08 88.94 26.42
  Q 88.49 26.76 88.30 27.31
  A 0.77 0.76 82.7 0 0 89.45 28.20
  Q 90.35 27.59 89.70 26.56
  Z"
/>
<path fill="#182715" d="
  M 140.12 34.01
  Q 140.48 39.01 136.60 41.05
  C 134.61 42.10 131.87 40.88 129.92 40.04
  Q 124.60 37.73 119.29 35.35
  A 0.59 0.59 0.0 0 1 118.99 34.58
  L 126.40 17.69
  A 0.64 0.63 22.2 0 1 127.22 17.35
  Q 133.64 19.93 139.34 22.90
  C 143.71 25.18 144.21 29.90 140.50 33.10
  Q 140.08 33.46 140.12 34.01
  Z
  M 132.5947 30.4761
  A 1.17 0.98 101.6 0 0 133.7900 29.5271
  A 1.17 0.98 101.6 0 0 133.0653 28.1839
  A 1.17 0.98 101.6 0 0 131.8700 29.1329
  A 1.17 0.98 101.6 0 0 132.5947 30.4761
  Z
  M 133.8463 33.2783
  A 1.72 0.91 20.0 0 0 132.5412 31.8349
  A 1.72 0.91 20.0 0 0 130.6137 32.1017
  A 1.72 0.91 20.0 0 0 131.9188 33.5451
  A 1.72 0.91 20.0 0 0 133.8463 33.2783
  Z"
/>
<path fill="#182715" d="
  M 71.72 31.03
  A 0.41 0.41 0.0 0 0 71.51 31.60
  L 71.67 31.89
  Q 71.76 32.06 71.94 32.01
  Q 75.08 31.16 77.90 29.51
  A 0.72 0.72 0.0 0 1 78.92 29.86
  L 80.41 33.58
  Q 80.70 34.28 80.08 34.74
  Q 75.28 38.32 70.58 38.86
  C 65.80 39.40 63.11 34.32 62.36 30.31
  Q 61.32 24.72 66.88 22.18
  C 72.99 19.39 76.67 20.93 78.58 27.36
  A 0.91 0.90 70.5 0 1 78.06 28.46
  L 71.72 31.03
  Z
  M 71.90 28.82
  A 0.96 0.96 0.0 0 0 70.94 27.86
  A 0.96 0.96 0.0 0 0 69.98 28.82
  A 0.96 0.96 0.0 0 0 70.94 29.78
  A 0.96 0.96 0.0 0 0 71.90 28.82
  Z"
/>
<path fill="#182715" d="
  M 56.89 38.63
  L 61.09 35.56
  A 0.23 0.23 0.0 0 1 61.42 35.61
  L 64.88 40.63
  Q 65.10 40.94 64.85 41.22
  Q 61.64 44.82 57.75 46.73
  C 52.91 49.12 49.08 45.48 46.98 41.45
  C 43.62 35.01 49.76 30.45 54.98 28.43
  Q 56.05 28.02 56.71 28.96
  L 59.88 33.47
  Q 60.51 34.38 59.60 35.01
  L 56.00 37.52
  Q 55.63 37.77 55.88 38.14
  L 56.12 38.50
  A 0.55 0.54 54.5 0 0 56.89 38.63
  Z"
/>
<path fill="#182715" d="
  M 149.22 41.59
  C 148.59 39.84 144.96 38.39 143.33 38.01
  A 0.17 0.17 0.0 0 1 143.24 37.74
  L 147.73 32.31
  A 0.37 0.36 26.9 0 1 148.12 32.19
  Q 154.53 34.04 158.13 39.30
  C 160.47 42.73 157.57 45.86 155.46 48.27
  Q 155.28 48.48 155.28 48.76
  L 155.27 49.02
  Q 155.27 49.40 155.03 49.70
  L 151.99 53.58
  Q 151.52 54.18 150.80 53.93
  Q 147.99 52.95 146.31 50.89
  Q 145.99 50.50 145.99 49.99
  L 145.99 49.46
  A 0.72 0.71 3.1 0 0 145.35 48.75
  C 142.71 48.46 137.46 45.42 139.33 41.95
  C 141.89 37.21 145.55 40.17 148.69 42.03
  Q 149.56 42.54 149.22 41.59
  Z
  M 148.69 43.93
  A 0.52 0.52 0.0 0 0 148.50 43.10
  Q 147.73 42.80 147.15 43.23
  Q 146.85 43.45 146.86 43.84
  Q 146.89 44.33 147.25 44.62
  Q 147.72 44.99 148.12 44.55
  L 148.69 43.93
  Z"
/>
<path fill="#182715" d="
  M 43.4066 60.9525
  A 8.23 8.23 0.0 0 1 31.8035 61.8657
  L 28.9596 59.4368
  A 8.23 8.23 0.0 0 1 28.0464 47.8337
  L 31.5534 43.7275
  A 8.23 8.23 0.0 0 1 43.1565 42.8143
  L 46.0004 45.2432
  A 8.23 8.23 0.0 0 1 46.9136 56.8463
  L 43.4066 60.9525
  Z
  M 40.0965 54.4872
  A 0.78 0.78 0.0 0 0 40.0042 53.3880
  L 37.3615 51.1547
  A 0.78 0.78 0.0 0 0 36.2622 51.2470
  L 36.2235 51.2928
  A 0.78 0.78 0.0 0 0 36.3158 52.3920
  L 38.9585 54.6253
  A 0.78 0.78 0.0 0 0 40.0578 54.5330
  L 40.0965 54.4872
  Z"
/>
<path fill="#182715" d="
  M 168.22 51.74
  Q 170.39 52.04 171.94 53.77
  Q 172.46 54.35 171.86 54.84
  L 165.87 59.72
  Q 165.39 60.11 165.06 59.60
  L 163.53 57.27
  A 0.61 0.60 53.7 0 0 162.64 57.13
  L 157.07 61.74
  A 0.33 0.33 0.0 0 1 156.61 61.70
  L 151.63 55.67
  Q 151.43 55.42 151.67 55.22
  L 163.88 45.08
  Q 164.33 44.70 164.74 45.14
  C 165.94 46.45 166.97 47.90 168.15 49.18
  Q 169.21 50.32 168.09 51.23
  Q 167.57 51.64 168.22 51.74
  Z"
/>
<path fill="#0f1e0d" d="
  M 161.02 107.28
  Q 162.48 106.55 164.17 106.32
  A 1.42 1.42 0.0 0 1 165.77 107.65
  Q 165.83 108.75 165.12 109.63
  C 160.20 115.68 153.97 119.32 147.32 122.96
  A 1.27 1.27 0.0 0 0 146.70 123.80
  L 145.83 127.77
  Q 145.72 128.27 146.05 128.66
  C 146.76 129.52 147.12 130.36 146.89 131.50
  Q 146.30 134.47 146.52 137.39
  Q 146.56 138.01 146.23 138.54
  Q 145.83 139.18 145.77 139.91
  C 145.38 144.81 139.64 149.75 135.52 151.50
  C 125.24 155.87 114.97 147.91 112.37 137.87
  Q 111.17 133.20 111.61 130.25
  A 0.49 0.48 -49.7 0 1 112.55 130.17
  C 114.98 137.90 115.58 144.49 123.45 148.61
  C 132.02 153.09 139.87 147.71 143.53 140.02
  Q 143.77 139.51 143.20 139.49
  C 136.77 139.29 133.45 136.61 129.25 132.42
  A 0.62 0.61 36.6 0 0 128.27 132.56
  Q 126.43 136.08 123.73 138.97
  Q 123.07 139.68 123.12 138.71
  Q 123.20 137.14 124.04 135.72
  Q 127.22 130.43 128.99 125.03
  C 130.10 121.65 133.68 121.56 130.79 117.19
  Q 128.20 113.27 125.00 111.30
  Q 124.56 111.03 124.18 111.37
  C 120.94 114.24 118.07 115.50 114.49 117.27
  Q 112.86 118.07 111.22 118.40
  Q 109.09 118.83 106.99 119.16
  Q 104.29 119.58 101.56 119.01
  Q 100.92 118.87 101.24 119.44
  C 103.70 123.73 101.49 128.82 99.01 132.70
  A 0.56 0.55 -44.3 0 1 98.07 132.69
  C 97.44 131.65 97.00 130.52 96.09 129.67
  C 94.38 128.08 91.85 126.66 90.98 124.52
  Q 89.90 121.88 91.11 117.66
  Q 91.13 117.59 91.07 117.56
  L 90.81 117.43
  Q 90.22 117.14 89.89 117.71
  Q 89.08 119.13 87.69 120.14
  Q 87.24 120.46 87.12 120.99
  Q 86.88 122.03 86.86 123.08
  Q 86.65 131.38 86.82 140.22
  C 86.88 143.84 85.93 147.00 83.99 149.98
  A 0.75 0.75 0.0 0 1 83.18 150.30
  Q 82.32 150.09 82.52 149.36
  Q 83.03 147.49 83.63 145.77
  Q 83.88 145.07 83.19 145.36
  Q 77.16 147.87 69.89 146.45
  C 62.17 144.93 59.96 139.50 57.99 132.90
  Q 57.85 132.43 57.49 132.09
  L 56.92 131.55
  Q 56.55 131.20 56.54 130.69
  Q 56.50 128.32 56.08 125.86
  C 55.91 124.85 55.78 123.23 56.98 122.76
  A 1.86 1.85 50.7 0 0 57.30 119.48
  Q 48.23 113.54 42.11 104.50
  A 1.18 1.15 -17.3 0 0 41.13 104.00
  C 37.47 104.06 31.62 103.42 32.88 98.17
  C 33.58 95.27 35.92 93.88 37.98 91.96
  Q 41.63 88.57 45.96 84.97
  Q 47.47 83.71 49.12 83.71
  Q 51.78 83.71 53.06 85.34
  C 53.73 86.19 54.98 86.40 56.00 86.52
  Q 65.79 87.66 74.75 92.09
  C 79.02 94.21 78.42 100.16 77.13 103.91
  A 1.28 1.28 0.0 0 1 75.10 104.47
  Q 73.59 103.19 74.06 100.99
  A 0.22 0.22 0.0 0 0 73.80 100.73
  L 71.53 101.24
  Q 71.34 101.28 71.29 101.47
  Q 70.28 105.65 71.01 109.36
  Q 71.77 113.22 70.69 116.70
  A 2.90 2.90 0.0 0 0 71.88 119.98
  Q 73.18 120.82 73.68 122.42
  Q 74.76 125.84 76.50 128.87
  Q 76.75 129.30 77.13 128.98
  Q 78.22 128.08 78.73 126.75
  Q 79.69 124.22 80.82 121.69
  Q 81.01 121.27 80.63 121.01
  Q 77.96 119.16 75.73 116.51
  A 0.71 0.71 0.0 0 1 76.06 115.37
  C 77.67 114.87 79.26 114.61 80.60 113.51
  Q 82.65 111.84 85.04 111.95
  A 0.63 0.63 0.0 0 0 85.71 111.32
  Q 85.71 108.51 86.96 105.82
  Q 87.27 105.15 87.13 104.43
  L 86.27 100.08
  Q 86.14 99.45 85.65 99.04
  Q 82.34 96.30 83.10 91.50
  A 0.35 0.34 30.1 0 1 83.71 91.34
  L 84.90 92.80
  A 0.77 0.77 0.0 0 0 86.25 92.50
  Q 87.74 86.16 90.46 80.22
  Q 90.68 79.73 90.45 79.24
  Q 90.30 78.92 90.01 78.70
  A 0.85 0.85 0.0 0 1 89.73 77.73
  L 92.31 70.81
  Q 92.52 70.25 91.93 70.23
  Q 89.89 70.13 88.47 68.57
  C 84.91 64.64 85.36 57.16 90.89 55.03
  Q 91.38 54.84 91.67 54.41
  C 92.41 53.32 92.97 52.12 94.07 51.34
  Q 99.99 47.17 105.07 51.07
  Q 105.52 51.41 105.92 51.01
  C 110.67 46.20 120.43 48.22 122.58 54.59
  Q 122.77 55.16 123.37 55.06
  Q 129.22 54.13 132.73 60.24
  Q 134.48 63.28 133.25 66.26
  Q 133.03 66.78 133.47 67.15
  Q 136.75 69.85 135.50 73.31
  Q 132.90 80.55 125.09 79.46
  Q 124.79 79.42 124.70 79.71
  L 122.83 86.04
  A 0.22 0.22 0.0 0 0 123.01 86.32
  C 127.80 87.03 127.14 92.81 124.42 95.39
  Q 123.97 95.81 124.56 96.00
  C 126.96 96.73 127.31 99.87 125.03 101.01
  Q 124.67 101.19 124.76 101.59
  Q 125.31 104.02 123.39 105.48
  Q 122.25 106.35 123.65 106.64
  Q 127.76 107.49 127.33 110.64
  A 0.70 0.67 28.4 0 0 127.51 111.19
  L 132.99 117.23
  Q 134.23 118.59 133.50 116.90
  Q 132.13 113.77 131.31 109.65
  Q 131.00 108.04 132.21 107.19
  Q 134.96 105.25 137.64 103.03
  Q 138.15 102.61 138.44 102.01
  A 1.24 1.23 6.6 0 1 139.28 101.35
  L 146.66 99.70
  A 1.68 1.67 81.0 0 1 148.69 101.18
  L 149.06 104.98
  A 0.33 0.33 0.0 0 0 149.65 105.16
  Q 152.86 101.18 155.19 96.65
  C 155.86 95.36 157.98 93.75 159.31 95.21
  C 160.56 96.58 159.21 99.72 158.43 101.15
  Q 158.35 101.29 158.48 101.37
  L 158.70 101.52
  Q 158.76 101.56 158.79 101.50
  Q 159.80 99.33 161.93 98.85
  A 1.54 1.54 0.0 0 1 163.73 100.84
  Q 162.68 104.01 160.72 106.93
  Q 160.22 107.68 161.02 107.28
  Z
  M 120.88 69.54
  Q 119.91 70.48 118.66 71.12
  A 1.31 1.31 0.0 0 0 118.72 73.48
  Q 121.52 74.75 125.25 72.90
  A 0.35 0.35 0.0 0 1 125.74 73.32
  Q 125.34 74.53 123.89 74.98
  A 0.93 0.93 0.0 0 0 123.71 76.67
  Q 129.61 80.04 133.07 74.31
  Q 135.03 71.04 132.88 68.49
  Q 132.49 68.03 132.05 68.43
  Q 131.54 68.88 130.92 69.15
  Q 130.08 69.51 130.38 68.65
  C 131.00 66.89 132.13 64.94 131.58 63.08
  Q 129.72 56.79 123.61 56.51
  Q 123.18 56.49 123.00 56.89
  Q 122.61 57.72 122.62 58.67
  A 1.54 1.53 -14.6 0 1 121.83 60.01
  L 121.54 60.17
  A 0.43 0.43 0.0 0 1 120.90 59.82
  C 120.67 56.48 121.28 53.70 117.73 51.75
  Q 111.77 48.48 106.78 52.19
  Q 106.38 52.48 106.61 52.92
  Q 107.08 53.85 106.93 54.82
  Q 106.56 57.28 105.47 55.05
  C 102.43 48.88 95.15 50.81 92.59 56.06
  A 1.23 1.22 -84.9 0 1 91.82 56.71
  Q 91.45 56.82 91.09 56.66
  A 0.83 0.82 32.5 0 0 90.13 56.87
  C 86.90 60.57 87.05 66.92 92.37 68.56
  Q 92.95 68.74 93.23 68.20
  Q 94.30 66.21 94.56 63.41
  A 0.35 0.34 -3.4 0 1 94.84 63.10
  L 95.15 63.05
  Q 95.54 62.98 95.50 63.38
  Q 95.14 67.66 99.31 68.08
  C 101.20 68.28 102.87 66.85 104.13 65.58
  Q 104.68 65.02 104.86 65.78
  Q 105.64 69.03 109.18 69.29
  A 0.69 0.69 0.0 0 0 109.86 68.33
  Q 109.27 66.94 110.15 65.79
  Q 110.63 65.16 110.80 65.94
  Q 111.63 69.74 115.13 70.39
  C 116.94 70.73 118.92 69.66 120.64 69.13
  Q 121.60 68.84 120.88 69.54
  Z
  M 96.00 69.64
  C 97.91 70.24 99.54 71.54 101.43 69.78
  Q 102.19 69.06 101.23 69.49
  Q 98.17 70.86 95.39 68.04
  A 0.41 0.40 28.4 0 0 94.70 68.24
  Q 93.87 72.14 92.51 75.16
  Q 92.10 76.07 93.07 75.85
  Q 102.81 73.62 111.58 75.84
  Q 117.68 77.39 121.87 82.53
  Q 122.36 83.13 122.61 82.40
  L 123.60 79.55
  Q 123.83 78.88 123.30 78.42
  Q 122.44 77.70 122.00 76.64
  Q 121.74 76.01 121.05 75.99
  Q 117.29 75.90 116.59 72.76
  Q 116.46 72.20 115.90 72.27
  C 112.62 72.68 111.79 69.48 108.46 70.34
  Q 107.39 70.62 108.50 70.68
  Q 109.05 70.72 109.62 70.84
  Q 111.22 71.19 109.75 71.91
  Q 106.75 73.38 104.27 70.42
  Q 103.99 70.09 104.33 69.84
  L 104.54 69.68
  Q 104.59 69.64 104.63 69.68
  Q 105.77 70.99 107.26 70.86
  Q 108.37 70.76 107.31 70.42
  Q 106.04 70.00 105.25 69.04
  Q 103.30 66.68 102.74 69.73
  Q 102.40 71.58 100.50 71.92
  Q 97.90 72.39 95.76 70.01
  Q 95.18 69.38 96.00 69.64
  Z
  M 91.72 80.78
  L 87.95 92.59
  A 0.52 0.51 -82.4 0 0 88.46 93.26
  Q 90.94 93.14 92.81 94.47
  A 0.31 0.31 0.0 0 0 93.28 94.32
  C 94.33 91.19 97.86 91.50 99.24 88.29
  Q 100.73 84.84 100.23 88.57
  C 99.87 91.28 97.16 91.96 95.29 93.19
  Q 93.80 94.17 94.90 95.56
  Q 95.68 96.53 96.94 96.91
  A 3.29 3.28 -54.6 0 0 99.82 96.42
  L 101.49 95.20
  Q 101.94 94.88 102.48 95.01
  C 103.92 95.39 104.76 96.45 106.16 96.83
  Q 109.66 97.78 111.82 95.47
  Q 113.18 94.01 112.76 95.96
  C 111.79 100.41 108.57 101.94 104.28 102.26
  Q 99.22 102.64 96.91 99.44
  Q 96.51 98.89 95.90 99.20
  Q 92.41 101.00 88.55 100.28
  Q 87.97 100.18 88.06 100.76
  C 88.99 107.19 91.69 112.21 99.26 111.82
  C 108.32 111.34 113.33 103.78 116.54 96.07
  A 0.56 0.56 0.0 0 1 117.22 95.75
  L 117.62 95.87
  A 0.40 0.40 0.0 0 1 117.84 96.48
  Q 117.57 96.88 117.55 97.33
  Q 117.52 98.00 118.14 97.75
  Q 121.73 96.34 123.99 93.16
  C 125.55 90.95 125.03 86.86 121.33 87.88
  C 119.01 88.52 119.09 92.14 116.17 93.05
  A 1.63 1.63 0.0 0 1 114.08 91.79
  Q 113.47 88.50 115.95 86.05
  A 0.64 0.63 -16.1 0 0 116.14 85.71
  Q 116.27 85.13 115.78 85.02
  A 0.65 0.64 -89.4 0 1 115.29 84.51
  Q 114.89 82.40 116.05 80.57
  Q 116.39 80.04 115.86 79.68
  C 110.39 76.02 101.48 75.88 95.22 76.97
  Q 92.25 77.50 91.72 80.78
  Z
  M 39.13 97.25
  Q 39.37 98.20 39.43 98.99
  Q 39.48 99.78 40.04 99.23
  L 51.94 87.46
  Q 52.80 86.60 51.71 86.05
  L 50.00 85.19
  Q 48.88 84.62 47.91 85.44
  L 37.46 94.29
  Q 37.08 94.61 37.12 95.11
  Q 37.18 95.82 37.85 95.71
  Q 38.51 95.61 38.47 96.28
  Q 38.46 96.48 38.64 96.59
  Q 39.02 96.82 39.13 97.25
  Z
  M 69.77 92.47
  A 0.75 0.74 50.3 0 1 69.67 93.56
  Q 66.50 95.97 62.82 94.49
  A 1.24 1.24 0.0 0 1 62.63 92.28
  Q 64.22 91.29 66.17 91.15
  Q 68.84 90.95 66.29 90.14
  L 62.77 89.02
  Q 62.15 88.83 61.95 89.44
  Q 61.38 91.21 59.53 91.78
  A 0.36 0.36 0.0 0 0 59.34 92.33
  Q 59.46 92.51 59.31 92.62
  Q 59.04 92.81 58.77 92.61
  C 57.02 91.25 53.85 91.24 54.63 88.10
  Q 54.74 87.65 54.46 87.29
  Q 54.31 87.10 54.10 87.06
  Q 53.61 86.97 53.29 87.35
  L 48.58 92.86
  A 0.18 0.18 0.0 0 0 48.79 93.15
  Q 52.12 91.75 55.16 92.17
  A 1.52 1.52 0.0 0 1 55.86 94.89
  Q 52.98 97.04 48.64 96.30
  A 1.28 1.28 0.0 0 1 47.87 94.21
  Q 48.03 94.02 48.13 93.81
  Q 48.61 92.84 47.84 93.59
  Q 44.78 96.58 41.92 99.48
  A 0.27 0.27 0.0 0 0 41.91 99.85
  L 42.08 100.05
  A 0.13 0.13 0.0 0 0 42.26 100.05
  C 44.10 98.22 46.75 96.16 49.38 97.33
  Q 51.02 98.06 52.81 97.90
  Q 54.99 97.69 56.05 96.65
  Q 56.55 96.17 57.31 96.18
  Q 58.21 96.18 58.87 96.63
  Q 59.31 96.92 59.83 96.87
  Q 65.42 96.36 70.10 96.52
  Q 71.73 96.57 72.56 98.01
  Q 72.88 98.56 73.23 98.02
  L 73.66 97.35
  Q 73.97 96.87 74.53 96.91
  Q 75.07 96.94 75.32 97.46
  Q 75.56 97.97 75.43 98.53
  Q 74.94 100.62 75.42 102.73
  Q 75.76 104.23 76.08 102.72
  Q 76.66 100.00 76.55 97.10
  C 76.41 93.56 72.60 92.40 69.87 91.27
  C 69.00 90.91 68.14 91.18 67.42 91.75
  Q 66.78 92.25 65.96 92.23
  Q 64.61 92.20 63.66 92.93
  Q 62.82 93.59 63.89 93.59
  Q 65.49 93.59 67.10 93.58
  Q 68.01 93.57 68.25 92.73
  Q 68.36 92.37 68.66 92.15
  Q 69.15 91.79 69.77 92.47
  Z
  M 60.47 89.39
  Q 61.36 89.04 60.45 88.74
  Q 58.55 88.09 56.65 87.91
  Q 56.15 87.86 55.93 88.30
  Q 55.71 88.75 55.89 89.21
  Q 56.21 90.00 56.95 89.57
  Q 57.56 89.21 58.01 89.75
  Q 58.73 90.60 59.59 89.90
  Q 59.98 89.58 60.47 89.39
  Z
  M 51.13 94.15
  Q 51.58 94.39 51.48 94.92
  Q 51.34 95.67 52.06 95.40
  Q 52.86 95.10 53.70 94.79
  Q 57.98 93.16 53.41 93.04
  Q 51.65 92.99 49.29 94.14
  Q 48.92 94.33 49.08 94.71
  Q 49.30 95.26 49.90 95.37
  Q 50.45 95.47 50.47 94.92
  L 50.49 94.51
  Q 50.52 93.82 51.13 94.15
  Z
  M 36.1015 101.8297
  A 2.76 1.99 90.8 0 0 38.1298 99.0978
  A 2.76 1.99 90.8 0 0 36.1785 96.3103
  A 2.76 1.99 90.8 0 0 34.1502 99.0422
  A 2.76 1.99 90.8 0 0 36.1015 101.8297
  Z
  M 149.82 107.67
  L 151.59 108.84
  A 0.75 0.75 0.0 0 0 152.63 108.63
  L 152.67 108.58
  A 13.51 1.21 -56.6 0 0 159.09 96.63
  L 158.09 95.97
  A 13.51 1.21 -56.6 0 0 149.64 106.58
  L 149.61 106.64
  A 0.75 0.75 0.0 0 0 149.82 107.67
  Z
  M 70.9659 97.6024
  A 0.27 0.27 0.0 0 0 70.6679 97.3637
  L 43.6521 100.3462
  A 0.27 0.27 0.0 0 0 43.4133 100.6442
  L 43.5341 101.7376
  A 0.27 0.27 0.0 0 0 43.8321 101.9763
  L 70.8479 98.9938
  A 0.27 0.27 0.0 0 0 71.0867 98.6958
  L 70.9659 97.6024
  Z
  M 48.83 98.03
  C 47.28 97.87 45.60 97.95 44.56 99.29
  Q 44.09 99.91 44.81 99.60
  Q 46.66 98.82 48.59 98.79
  A 0.37 0.37 0.0 0 0 48.95 98.44
  L 48.96 98.18
  Q 48.96 98.05 48.83 98.03
  Z
  M 152.83 110.94
  L 154.20 112.02
  A 0.66 0.66 0.0 0 0 155.12 111.91
  L 157.74 108.61
  A 9.73 1.04 -51.6 0 0 162.97 100.34
  L 162.20 99.73
  A 9.73 1.04 -51.6 0 0 155.34 106.71
  L 152.73 110.01
  A 0.66 0.66 0.0 0 0 152.83 110.94
  Z
  M 53.15 109.98
  Q 48.91 106.07 43.15 102.68
  Q 42.57 102.34 42.84 102.95
  Q 43.84 105.22 45.58 106.89
  Q 50.29 111.41 56.20 116.72
  C 57.49 117.88 59.09 118.26 60.79 118.32
  Q 61.94 118.35 61.22 119.25
  Q 60.96 119.57 60.46 119.72
  Q 59.69 119.94 59.84 120.72
  L 60.19 122.47
  A 0.80 0.79 -11.1 0 0 61.13 123.10
  Q 65.02 122.34 69.00 120.75
  Q 69.54 120.54 69.43 119.97
  Q 68.88 117.07 69.93 114.22
  Q 70.18 113.52 69.98 112.80
  Q 68.22 106.56 70.29 101.05
  Q 70.55 100.36 69.83 100.52
  Q 68.76 100.75 68.20 101.75
  Q 66.43 104.90 64.24 107.51
  Q 62.35 109.76 62.51 112.92
  Q 62.52 113.24 62.20 113.21
  L 61.87 113.18
  A 0.54 0.53 -2.9 0 1 61.40 112.76
  Q 60.75 109.65 62.27 107.19
  Q 62.56 106.71 62.18 106.30
  C 61.53 105.60 60.55 105.26 59.65 105.76
  Q 56.35 107.63 54.03 109.96
  Q 53.60 110.39 53.15 109.98
  Z
  M 66.62 101.54
  A 0.33 0.33 0.0 0 0 66.31 101.04
  L 60.18 101.65
  A 0.33 0.33 0.0 0 0 59.97 102.21
  L 63.44 105.93
  A 0.33 0.33 0.0 0 0 63.96 105.87
  L 66.62 101.54
  Z
  M 141.27 116.28
  C 141.16 114.38 140.76 111.18 138.36 110.97
  C 137.41 110.89 136.65 110.04 136.76 109.09
  A 1.53 1.48 70.6 0 1 137.14 108.26
  Q 138.49 106.81 138.19 105.04
  Q 138.07 104.29 137.54 104.84
  Q 135.43 107.05 132.50 108.17
  A 0.62 0.62 0.0 0 0 132.13 108.94
  L 135.74 119.80
  Q 136.07 120.79 135.37 120.02
  L 135.02 119.63
  Q 134.63 119.21 134.35 119.70
  L 132.70 122.55
  A 1.21 1.20 37.6 0 0 132.89 123.99
  C 134.85 125.99 140.35 129.96 143.24 129.23
  A 0.60 0.59 -1.6 0 0 143.69 128.76
  L 144.60 124.30
  A 0.21 0.21 0.0 0 0 144.32 124.06
  Q 141.14 125.18 138.27 123.64
  Q 137.59 123.27 137.60 122.49
  L 137.61 122.22
  A 0.32 0.32 0.0 0 1 138.05 121.93
  Q 141.54 123.34 144.34 122.43
  Q 148.53 121.07 154.09 117.24
  Q 154.56 116.91 154.38 116.37
  Q 152.16 109.69 146.65 106.71
  Q 146.03 106.37 146.73 106.29
  L 147.66 106.18
  Q 148.00 106.14 147.96 105.80
  L 147.43 101.19
  Q 147.38 100.73 146.93 100.84
  L 140.20 102.52
  Q 139.34 102.74 140.06 103.25
  Q 140.65 103.67 141.36 103.95
  Q 142.27 104.31 143.21 104.05
  L 145.52 103.41
  Q 146.28 103.20 145.86 103.87
  Q 144.97 105.26 145.64 106.95
  A 1.14 1.13 -30.7 0 1 145.30 108.25
  L 142.11 110.84
  A 0.72 0.72 0.0 0 0 141.93 111.73
  Q 143.19 114.12 141.75 116.41
  Q 141.31 117.11 141.27 116.28
  Z
  M 41.6507 101.4056
  A 1.56 0.67 -24.4 0 0 39.9532 101.4398
  A 1.56 0.67 -24.4 0 0 38.8093 102.6944
  A 1.56 0.67 -24.4 0 0 40.5068 102.6602
  A 1.56 0.67 -24.4 0 0 41.6507 101.4056
  Z
  M 59.3656 104.8948
  A 0.55 0.55 0.0 0 0 59.2911 104.1206
  L 56.5595 101.8689
  A 0.55 0.55 0.0 0 0 55.7853 101.9434
  L 55.7344 102.0052
  A 0.55 0.55 0.0 0 0 55.8089 102.7794
  L 58.5405 105.0311
  A 0.55 0.55 0.0 0 0 59.3147 104.9566
  L 59.3656 104.8948
  Z
  M 57.0352 105.8164
  A 0.26 0.26 0.0 0 0 56.9929 105.4511
  L 52.4788 101.8733
  A 0.26 0.26 0.0 0 0 52.1136 101.9156
  L 51.5048 102.6836
  A 0.26 0.26 0.0 0 0 51.5471 103.0489
  L 56.0612 106.6267
  A 0.26 0.26 0.0 0 0 56.4264 106.5844
  L 57.0352 105.8164
  Z
  M 54.6737 107.4655
  A 0.27 0.27 0.0 0 0 54.6172 107.0878
  L 48.1221 102.2817
  A 0.27 0.27 0.0 0 0 47.7444 102.3381
  L 47.0663 103.2545
  A 0.27 0.27 0.0 0 0 47.1228 103.6322
  L 53.6179 108.4383
  A 0.27 0.27 0.0 0 0 53.9956 108.3819
  L 54.6737 107.4655
  Z
  M 114.49 111.22
  Q 109.03 114.59 101.30 115.78
  Q 97.45 116.37 101.20 117.44
  Q 103.61 118.12 106.49 117.59
  Q 115.89 115.87 123.75 109.39
  Q 124.07 109.12 123.71 108.90
  L 115.02 103.60
  A 0.46 0.46 0.0 0 0 114.38 103.76
  Q 109.48 111.95 100.70 113.55
  Q 100.34 113.62 100.40 113.98
  L 100.44 114.23
  Q 100.45 114.31 100.53 114.30
  Q 107.88 113.29 114.35 110.95
  Q 115.73 110.45 114.49 111.22
  Z
  M 139.40 107.56
  L 138.60 108.74
  Q 138.25 109.25 138.83 109.49
  Q 142.01 110.80 143.82 107.13
  Q 144.75 105.21 142.64 105.47
  Q 141.46 105.62 140.27 105.13
  Q 139.40 104.78 139.54 105.71
  L 139.66 106.43
  Q 139.76 107.05 139.40 107.56
  Z
  M 88.18 107.08
  A 0.49 0.49 0.0 0 0 87.27 107.30
  L 86.95 111.67
  A 0.49 0.49 0.0 0 0 87.82 112.02
  L 89.55 109.95
  A 0.49 0.49 0.0 0 0 89.59 109.38
  L 88.18 107.08
  Z
  M 164.5763 107.6360
  A 1.37 1.37 0.0 0 0 162.6563 107.3764
  L 155.2106 113.0485
  A 1.37 1.37 0.0 0 0 154.9510 114.9685
  L 155.0237 115.0640
  A 1.37 1.37 0.0 0 0 156.9437 115.3236
  L 164.3894 109.6515
  A 1.37 1.37 0.0 0 0 164.6490 107.7315
  L 164.5763 107.6360
  Z
  M 89.8917 115.3094
  A 2.26 1.32 108.8 0 0 91.8696 113.5954
  A 2.26 1.32 108.8 0 0 91.3483 111.0306
  A 2.26 1.32 108.8 0 0 89.3704 112.7446
  A 2.26 1.32 108.8 0 0 89.8917 115.3094
  Z
  M 95.53 115.58
  L 96.67 113.89
  Q 97.06 113.30 96.35 113.27
  Q 95.14 113.21 93.98 112.73
  Q 93.11 112.38 92.83 113.27
  Q 92.56 114.13 91.93 114.78
  A 1.64 1.64 0.0 0 0 91.71 116.72
  Q 92.83 118.64 94.02 117.21
  A 0.70 0.69 44.3 0 1 95.08 117.20
  Q 95.68 117.89 96.47 117.42
  Q 98.35 116.28 98.73 113.97
  Q 98.82 113.42 98.28 113.36
  L 98.02 113.33
  A 0.61 0.60 -80.3 0 0 97.37 113.80
  Q 97.05 115.26 95.77 115.86
  Q 95.14 116.15 95.53 115.58
  Z
  M 86.63 116.92
  Q 85.42 118.32 83.45 117.86
  A 1.25 1.25 0.0 0 1 82.95 115.67
  Q 84.83 114.15 87.43 114.07
  Q 87.67 114.07 87.69 113.83
  L 87.71 113.54
  Q 87.73 113.31 87.50 113.30
  C 85.54 113.17 83.44 113.08 81.90 114.50
  Q 80.41 115.88 78.63 116.23
  Q 77.94 116.37 78.44 116.88
  Q 83.21 121.68 88.49 117.38
  Q 88.97 117.00 88.61 116.51
  L 87.79 115.38
  Q 87.47 114.94 86.92 114.99
  Q 85.02 115.19 83.84 116.50
  Q 83.30 117.10 84.10 117.03
  Q 85.28 116.92 86.40 116.56
  Q 87.16 116.31 86.63 116.92
  Z
  M 97.67 120.99
  Q 98.47 122.39 98.71 123.83
  A 1.45 1.45 0.0 0 1 96.55 125.32
  Q 93.52 123.56 93.16 119.65
  Q 93.11 119.11 92.56 119.11
  Q 92.20 119.12 92.07 119.46
  C 90.19 124.57 96.15 126.64 98.36 130.05
  Q 98.68 130.54 98.91 130.00
  C 100.47 126.32 101.69 121.69 98.79 118.49
  Q 98.42 118.08 97.99 118.44
  Q 96.62 119.60 94.88 119.12
  Q 94.23 118.93 94.34 119.60
  Q 94.81 122.46 96.55 123.84
  Q 97.94 124.95 97.71 123.18
  Q 97.58 122.22 97.32 121.12
  Q 97.04 119.88 97.67 120.99
  Z
  M 57.45 124.93
  C 57.69 126.42 58.33 128.69 57.69 130.13
  A 0.65 0.65 0.0 0 0 58.36 131.04
  C 63.38 130.47 68.98 130.11 73.49 127.48
  Q 73.73 127.34 73.64 127.07
  L 71.73 121.43
  Q 71.65 121.20 71.43 121.30
  C 68.00 122.79 61.61 125.32 58.21 124.27
  A 0.59 0.59 0.0 0 0 57.45 124.93
  Z
  M 82.74 123.54
  Q 82.70 123.25 82.94 123.04
  Q 83.28 122.74 83.65 123.00
  L 84.74 123.78
  Q 85.02 123.98 85.16 123.67
  L 85.37 123.22
  Q 85.44 123.06 85.34 122.91
  Q 84.18 121.29 82.67 122.09
  A 2.46 2.44 80.2 0 0 81.41 123.89
  Q 80.77 128.08 77.45 131.66
  Q 76.99 132.16 76.58 131.61
  L 74.84 129.27
  A 0.67 0.66 -36.3 0 0 73.92 129.13
  C 70.45 131.61 64.35 132.05 60.15 132.40
  Q 59.57 132.44 59.82 132.97
  C 61.15 135.78 61.73 138.57 63.99 141.09
  C 68.38 145.98 78.66 145.63 83.99 142.46
  Q 84.47 142.17 84.48 141.62
  L 84.96 125.49
  Q 84.97 124.99 84.67 124.60
  Q 84.19 123.97 83.30 124.02
  Q 82.80 124.04 82.74 123.54
  Z
  M 145.10 130.93
  C 140.11 132.22 133.84 128.32 131.37 124.17
  Q 130.94 123.44 130.70 124.26
  L 129.18 129.40
  A 0.84 0.82 -60.0 0 0 129.39 130.21
  C 133.76 134.55 138.28 138.17 144.73 137.23
  Q 145.15 137.17 145.18 136.74
  L 145.52 131.28
  Q 145.55 130.82 145.10 130.93
  Z"
/>
<path fill="#0e120c" d="
  M 73.21 75.67
  C 73.51 77.28 73.93 79.16 72.67 80.48
  C 70.97 82.25 68.21 81.33 66.35 83.01
  Q 65.01 84.23 64.30 85.93
  Q 63.52 87.80 63.01 85.84
  C 61.62 80.51 64.10 79.04 68.70 77.89
  Q 69.20 77.77 69.45 77.33
  Q 70.03 76.32 69.99 75.09
  C 69.94 73.58 71.07 71.68 72.56 71.23
  Q 75.41 70.36 77.08 67.81
  Q 78.46 65.71 78.63 68.22
  Q 78.94 73.06 74.03 74.37
  Q 73.01 74.64 73.21 75.67
  Z
  M 73.16 73.53
  Q 75.90 72.85 77.13 70.74
  A 0.16 0.16 0.0 0 0 76.89 70.53
  Q 75.13 71.97 72.99 72.26
  A 2.27 2.26 -8.8 0 0 71.05 74.89
  Q 71.38 76.80 70.47 78.29
  C 68.95 80.78 64.55 78.52 64.05 82.63
  Q 63.90 83.83 64.61 82.85
  C 66.21 80.63 68.06 80.49 70.51 79.99
  A 2.30 2.30 0.0 0 0 72.18 76.88
  Q 71.64 75.52 72.27 74.24
  A 1.36 1.35 6.3 0 1 73.16 73.53
  Z"
/>
<path fill="#0e120c" d="
  M 83.38 71.07
  Q 82.06 72.15 82.70 73.73
  Q 83.44 75.56 82.05 76.48
  C 80.94 77.20 80.04 77.00 79.26 78.41
  A 0.77 0.74 45.3 0 0 79.27 79.16
  Q 80.91 81.95 78.34 84.31
  C 77.28 85.27 75.83 85.35 74.58 85.95
  C 73.05 86.70 72.59 88.15 71.78 89.52
  Q 71.38 90.20 71.06 89.48
  Q 69.84 86.72 71.80 84.57
  C 72.83 83.43 74.33 83.61 75.67 82.99
  A 2.17 2.16 -21.5 0 0 76.82 80.35
  Q 75.33 75.82 79.89 74.86
  A 1.69 1.68 81.1 0 0 81.22 73.03
  Q 80.91 70.04 84.12 69.21
  Q 85.04 68.97 84.53 69.77
  Q 84.05 70.52 83.38 71.07
  Z
  M 80.26 76.05
  Q 77.86 75.61 77.54 78.25
  Q 77.38 79.61 78.24 79.78
  Q 78.33 83.66 73.98 84.47
  Q 72.70 84.71 71.98 86.26
  Q 71.67 86.93 72.29 86.54
  Q 73.34 85.87 74.27 85.00
  Q 74.66 84.63 75.19 84.57
  Q 78.19 84.23 78.92 81.75
  Q 79.44 79.97 78.24 79.78
  C 77.59 77.90 79.21 77.12 80.26 76.05
  Q 81.72 76.40 81.91 75.08
  Q 82.00 74.45 81.39 74.62
  Q 80.68 74.82 80.26 76.05
  Z"
/>
<path fill="#0e120c" d="
  M 58.75 82.07
  Q 58.79 83.57 59.27 85.08
  Q 59.63 86.21 58.45 86.02
  L 58.13 85.97
  A 2.48 2.47 -7.1 0 1 56.27 84.53
  C 54.57 80.67 55.41 77.22 59.28 75.70
  Q 60.83 75.09 62.31 74.42
  Q 62.82 74.19 63.03 73.67
  Q 63.39 72.76 63.56 71.73
  Q 63.65 71.22 64.08 70.95
  Q 64.52 70.68 64.69 71.17
  Q 66.78 77.32 60.78 79.23
  A 2.91 2.91 0.0 0 0 58.75 82.07
  Z
  M 57.26 82.84
  C 56.64 77.92 61.98 78.78 63.76 75.65
  Q 64.25 74.80 63.43 75.34
  C 60.36 77.35 55.21 76.79 56.65 82.52
  Q 56.73 82.82 56.99 83.00
  A 0.17 0.17 0.0 0 0 57.26 82.84
  Z"
/>
<path fill="#0e120c" d="
  M 114.27 73.29
  Q 114.67 73.82 114.03 73.62
  Q 113.01 73.30 112.07 72.95
  Q 111.59 72.77 111.61 72.26
  Q 111.64 71.64 112.24 71.83
  Q 113.48 72.21 114.27 73.29
  Z"
/>
<path fill="#0f1e0d" d="
  M 120.56 76.94
  Q 120.62 76.94 120.62 77.00
  L 120.58 77.50
  Q 120.54 77.89 120.15 77.85
  Q 117.16 77.53 115.73 75.10
  Q 115.53 74.75 115.88 74.56
  L 116.15 74.42
  Q 116.26 74.35 116.34 74.46
  Q 117.71 76.57 120.56 76.94
  Z"
/>
<path fill="#0e120c" d="
  M 129.70 76.22
  Q 128.98 76.49 129.27 75.78
  Q 129.69 74.73 131.29 74.64
  Q 131.96 74.61 131.49 75.09
  Q 130.76 75.83 129.70 76.22
  Z"
/>
<path fill="#0e120c" d="
  M 126.12 75.96
  Q 126.76 76.09 127.34 76.44
  Q 127.96 76.81 127.26 76.98
  Q 126.40 77.19 125.66 76.72
  A 0.51 0.51 0.0 0 1 125.47 76.10
  Q 125.71 75.54 125.91 75.82
  Q 125.99 75.93 126.12 75.96
  Z"
/>
<path fill="#0e120c" d="
  M 147.20 85.22
  C 146.41 83.96 146.11 82.54 145.04 81.46
  Q 144.44 80.86 145.25 80.58
  Q 147.29 79.88 148.51 77.87
  Q 148.97 77.10 149.19 77.97
  Q 149.70 80.04 151.27 81.43
  A 0.64 0.64 0.0 0 1 151.16 82.47
  Q 149.27 83.49 148.05 85.24
  Q 147.61 85.87 147.20 85.22
  Z
  M 148.7528 79.7058
  A 0.32 0.32 0.0 0 0 148.3050 79.6405
  L 146.4770 81.0030
  A 0.32 0.32 0.0 0 0 146.4117 81.4508
  L 147.5472 82.9742
  A 0.32 0.32 0.0 0 0 147.9950 83.0395
  L 149.8230 81.6770
  A 0.32 0.32 0.0 0 0 149.8883 81.2292
  L 148.7528 79.7058
  Z"
/>
<path fill="#0f1e0d" d="
  M 91.72 80.78
  Q 93.65 77.78 96.81 79.28
  Q 98.39 80.03 98.24 81.50
  A 0.70 0.70 0.0 0 1 97.03 81.90
  Q 95.30 79.99 92.84 81.39
  Q 92.19 81.77 91.72 80.78
  Z"
/>
<path fill="#0f1e0d" d="
  M 109.46 82.09
  L 107.07 82.56
  A 0.48 0.47 -4.8 0 1 106.50 82.08
  Q 106.52 81.80 106.66 81.56
  Q 107.13 80.80 108.00 80.48
  Q 112.08 78.99 113.47 82.75
  Q 113.78 83.59 113.12 84.21
  Q 112.72 84.59 112.35 84.17
  L 110.94 82.58
  Q 110.34 81.91 109.46 82.09
  Z"
/>
<path fill="#0e120c" d="
  M 142.80 87.61
  C 141.07 88.53 139.75 89.90 138.93 91.64
  A 0.69 0.69 0.0 0 1 137.65 91.53
  Q 136.78 88.46 133.90 86.43
  A 0.42 0.42 0.0 0 1 134.05 85.68
  Q 137.68 84.88 138.62 80.81
  Q 138.74 80.29 139.28 80.32
  Q 139.82 80.36 139.85 80.89
  Q 140.02 84.45 142.87 86.40
  A 0.71 0.71 0.0 0 1 142.80 87.61
  Z
  M 138.45 89.38
  A 0.32 0.32 0.0 0 0 138.95 89.40
  L 140.79 87.26
  A 0.32 0.32 0.0 0 0 140.82 86.89
  L 139.09 83.97
  A 0.32 0.32 0.0 0 0 138.59 83.91
  L 136.34 86.13
  A 0.32 0.32 0.0 0 0 136.31 86.55
  L 138.45 89.38
  Z"
/>
<path fill="#0f1e0d" d="
  M 95.43 85.00
  Q 96.82 86.28 95.33 88.09
  Q 94.54 89.06 94.12 90.27
  Q 93.93 90.82 93.48 90.45
  Q 93.30 90.31 93.40 90.11
  Q 93.55 89.82 93.43 89.51
  Q 92.87 88.01 91.34 87.48
  Q 90.92 87.33 91.22 87.00
  C 92.40 85.72 92.50 84.03 94.03 82.99
  Q 94.32 82.79 94.68 82.84
  Q 95.02 82.88 95.34 83.03
  Q 96.17 83.42 95.47 84.02
  Q 95.36 84.12 95.29 84.25
  Q 95.08 84.68 95.43 85.00
  Z"
/>
<path fill="#0f1e0d" d="
  M 108.81 87.56
  Q 108.95 87.47 109.11 87.41
  Q 110.03 87.02 109.68 87.95
  Q 109.21 89.18 110.20 89.93
  Q 110.84 90.41 110.04 90.46
  Q 107.59 90.59 106.10 92.50
  Q 105.41 93.40 105.57 92.28
  Q 105.74 91.05 105.54 89.92
  C 105.19 88.00 106.43 86.09 108.00 85.06
  Q 108.24 84.90 108.53 84.98
  Q 109.34 85.18 108.81 85.83
  Q 108.33 86.41 108.16 87.09
  Q 107.91 88.12 108.81 87.56
  Z"
/>
<path fill="#0e120c" d="
  M 149.07 88.49
  L 151.20 92.03
  A 0.34 0.34 0.0 0 1 151.15 92.45
  L 148.79 94.77
  A 0.34 0.34 0.0 0 1 148.26 94.72
  L 146.42 91.82
  A 0.34 0.34 0.0 0 1 146.43 91.44
  L 148.50 88.47
  A 0.34 0.34 0.0 0 1 149.07 88.49
  Z
  M 149.3705 92.8711
  A 1.28 1.02 55.2 0 0 149.4776 91.2379
  A 1.28 1.02 55.2 0 0 147.9095 90.7689
  A 1.28 1.02 55.2 0 0 147.8024 92.4021
  A 1.28 1.02 55.2 0 0 149.3705 92.8711
  Z"
/>
<path fill="#0e120c" d="
  M 120.63 92.21
  C 121.44 93.31 121.57 95.18 120.01 95.71
  Q 118.55 96.20 119.54 95.02
  Q 120.01 94.47 120.08 93.70
  A 0.62 0.61 -87.9 0 0 119.46 93.03
  Q 119.21 93.03 119.00 93.20
  Q 118.25 93.79 118.54 92.88
  Q 119.71 89.27 123.37 88.93
  Q 123.82 88.89 124.05 89.27
  Q 124.15 89.43 124.08 89.57
  Q 124.01 89.75 123.83 89.80
  Q 122.18 90.31 120.77 91.34
  Q 120.26 91.70 120.63 92.21
  Z"
/>
<path fill="#0e120c" d="
  M 40.17 93.68
  Q 40.34 93.25 40.80 93.10
  Q 41.21 92.96 40.97 93.33
  Q 40.40 94.22 39.43 94.65
  Q 38.88 94.89 39.24 94.41
  Q 39.61 93.91 40.17 93.68
  Z"
/>
<ellipse fill="#0e120c" cx="0.00" cy="0.00" transform="translate(43.06,94.78) rotate(-41.3)" rx="1.23" ry="0.32"/>
<path fill="#0e120c" d="
  M 41.11 95.20
  A 0.45 0.45 0.0 0 0 41.36 95.98
  Q 41.68 96.02 41.55 96.33
  Q 41.32 96.88 40.99 96.38
  Q 40.85 96.16 40.63 96.00
  Q 39.94 95.49 40.71 95.12
  Q 41.17 94.90 41.32 94.42
  A 0.41 0.41 0.0 0 1 41.75 94.14
  Q 41.96 94.16 41.98 94.38
  Q 42.00 94.74 41.66 94.86
  Q 41.36 94.97 41.11 95.20
  Z"
/>
<ellipse fill="#0e120c" cx="0.00" cy="0.00" transform="translate(59.01,94.91) rotate(54.3)" rx="1.02" ry="0.63"/>
<path fill="#0f1e0d" d="
  M 74.38 95.77
  L 71.22 95.41
  Q 71.08 95.39 71.05 95.25
  L 71.00 94.93
  Q 70.98 94.79 71.13 94.79
  L 74.43 94.92
  Q 74.71 94.93 74.70 95.21
  L 74.69 95.50
  Q 74.67 95.80 74.38 95.77
  Z"
/>
<path fill="#0e120c" d="
  M 92.75 101.79
  C 94.20 104.13 97.30 102.67 97.73 103.17
  Q 98.03 103.51 97.65 103.75
  Q 94.00 106.10 91.95 102.48
  A 0.48 0.46 53.9 0 1 92.03 101.90
  L 92.22 101.72
  Q 92.53 101.43 92.75 101.79
  Z"
/>
<path fill="#0e120c" d="
  M 116.76 118.45
  Q 114.28 119.49 111.72 119.98
  Q 111.10 120.09 110.62 119.58
  Q 110.02 118.96 110.88 119.05
  C 111.52 119.12 111.99 119.13 112.59 118.82
  Q 114.37 117.91 116.25 117.18
  Q 120.11 115.68 124.32 112.36
  Q 124.53 112.19 124.66 112.42
  L 124.91 112.84
  Q 124.94 112.89 124.90 112.93
  Q 120.98 116.67 116.76 118.45
  Z"
/>
<ellipse fill="#0e120c" cx="0.00" cy="0.00" transform="translate(124.29,116.64) rotate(135.5)" rx="1.68" ry="0.32"/>
<path fill="#0e120c" d="
  M 122.41 116.14
  Q 122.64 116.00 122.78 116.22
  L 122.93 116.45
  Q 123.03 116.60 122.88 116.72
  Q 120.06 118.86 116.97 119.84
  A 0.40 0.38 -23.1 0 1 116.52 119.67
  Q 116.36 119.39 116.48 119.18
  Q 116.57 119.01 116.76 119.06
  Q 117.01 119.13 117.27 119.11
  Q 117.53 119.08 117.75 118.95
  L 122.41 116.14
  Z"
/>
<ellipse fill="#0e120c" cx="0.00" cy="0.00" transform="translate(83.43,125.49) rotate(24.7)" rx="0.88" ry="0.49"/>
<path fill="#0e120c" d="
  M 62.23 127.57
  A 1.79 1.79 0.0 0 1 60.44 129.36
  A 1.79 1.79 0.0 0 1 58.65 127.57
  A 1.79 1.79 0.0 0 1 60.44 125.78
  A 1.79 1.79 0.0 0 1 62.23 127.57
  Z
  M 61.2236 127.1421
  A 0.74 0.61 -20.4 0 0 60.3174 126.8283
  A 0.74 0.61 -20.4 0 0 59.8364 127.6579
  A 0.74 0.61 -20.4 0 0 60.7426 127.9717
  A 0.74 0.61 -20.4 0 0 61.2236 127.1421
  Z"
/>
<path fill="#0e120c" d="
  M 144.59 134.14
  A 1.99 1.99 0.0 0 1 142.60 136.13
  A 1.99 1.99 0.0 0 1 140.61 134.14
  A 1.99 1.99 0.0 0 1 142.60 132.15
  A 1.99 1.99 0.0 0 1 144.59 134.14
  Z
  M 142.5448 134.9299
  A 0.94 0.70 89.1 0 0 143.2299 133.9790
  A 0.94 0.70 89.1 0 0 142.5152 133.0501
  A 0.94 0.70 89.1 0 0 141.8301 134.0010
  A 0.94 0.70 89.1 0 0 142.5448 134.9299
  Z"
/>
<path fill="#0e120c" d="
  M 110.16 132.42
  C 110.52 137.55 112.08 140.95 114.37 145.14
  Q 115.07 146.41 114.03 145.40
  Q 108.83 140.29 109.34 132.40
  Q 109.35 132.21 109.53 132.21
  L 109.93 132.21
  Q 110.15 132.20 110.16 132.42
  Z"
/>
<path fill="#0e120c" d="
  M 52.29 160.95
  C 50.41 160.65 48.22 162.04 48.54 164.13
  Q 48.62 164.66 48.11 164.83
  L 47.86 164.91
  Q 47.58 165.00 47.46 164.73
  C 46.24 161.94 50.63 159.68 52.85 160.30
  C 57.50 161.61 55.86 168.09 53.12 170.20
  Q 52.50 170.68 51.76 170.45
  Q 50.50 170.06 49.22 170.25
  Q 48.36 170.38 48.54 169.54
  L 50.01 162.45
  Q 50.19 161.60 51.06 161.64
  L 51.53 161.66
  Q 52.13 161.69 52.01 162.28
  L 50.69 168.48
  A 0.59 0.59 0.0 0 0 51.12 169.18
  Q 52.01 169.41 52.49 168.63
  Q 54.19 165.89 53.77 162.50
  A 1.79 1.79 0.0 0 0 52.29 160.95
  Z"
/>
<path fill="#0e120c" d="
  M 107.02 169.53
  C 105.68 170.53 103.89 170.90 102.45 170.05
  A 1.38 1.36 -83.0 0 1 101.81 169.22
  Q 101.15 166.67 103.30 165.08
  A 0.90 0.80 -4.8 0 0 103.50 164.87
  Q 104.02 164.06 103.44 163.83
  A 0.44 0.44 0.0 0 1 103.18 163.33
  Q 103.83 160.17 106.27 160.26
  Q 108.50 160.34 107.92 162.78
  A 0.47 0.45 -82.6 0 1 107.48 163.13
  L 107.05 163.13
  Q 106.60 163.13 106.77 162.71
  Q 107.00 162.11 106.94 161.49
  A 0.67 0.67 0.0 0 0 105.78 161.10
  Q 104.25 162.75 105.59 164.26
  Q 106.01 164.73 105.53 165.14
  Q 104.49 166.01 103.97 167.29
  A 1.42 1.42 0.0 0 0 105.22 169.25
  C 107.84 169.37 108.11 166.44 108.34 164.52
  A 0.87 0.87 0.0 0 1 109.20 163.75
  L 109.73 163.75
  A 0.61 0.60 -84.2 0 1 110.32 164.48
  L 109.57 168.01
  Q 109.18 169.88 110.60 168.61
  Q 113.03 166.44 111.53 164.29
  Q 111.20 163.83 111.69 163.54
  Q 111.96 163.38 112.26 163.40
  Q 112.84 163.45 112.91 164.02
  Q 113.41 168.11 110.16 170.20
  Q 109.59 170.57 108.92 170.41
  Q 108.26 170.26 107.90 169.69
  Q 107.55 169.14 107.02 169.53
  Z"
/>
<path fill="#0e120c" d="
  M 137.40 165.23
  Q 136.58 167.20 136.43 169.32
  Q 136.40 169.84 135.93 170.07
  Q 135.50 170.29 135.01 170.31
  Q 134.14 170.33 134.33 169.49
  L 135.83 162.71
  Q 135.97 162.08 136.55 161.79
  L 136.93 161.60
  Q 137.62 161.26 137.68 162.02
  Q 137.76 163.03 137.49 164.13
  Q 137.38 164.59 137.82 164.45
  L 138.08 164.38
  A 1.41 1.38 5.1 0 0 138.91 163.70
  Q 139.52 162.54 139.07 161.59
  Q 138.78 160.95 137.95 160.97
  Q 134.32 161.05 134.19 164.43
  Q 134.17 164.91 133.69 164.92
  L 133.34 164.92
  Q 133.11 164.93 133.07 164.70
  Q 132.69 162.58 134.64 161.28
  Q 137.99 159.05 140.43 161.39
  Q 140.80 161.74 140.77 162.26
  Q 140.69 163.33 139.93 164.13
  Q 139.53 164.54 140.00 164.88
  C 142.29 166.54 140.35 170.98 137.53 170.48
  Q 137.18 170.41 136.96 170.16
  A 0.55 0.55 0.0 0 1 137.24 169.27
  L 138.04 169.06
  Q 138.62 168.91 138.82 168.35
  Q 139.57 166.26 138.13 165.05
  Q 137.65 164.65 137.40 165.23
  Z"
/>
<path fill="#0e120c" d="
  M 65.88 161.67
  A 0.73 0.73 0.0 0 1 66.37 160.85
  Q 67.29 160.54 67.86 161.41
  A 0.90 0.90 0.0 0 1 67.65 162.63
  Q 66.24 163.67 65.88 161.67
  Z"
/>
<circle fill="#0e120c" cx="90.54" cy="161.78" r="1.03"/>
<circle fill="#0e120c" cx="143.69" cy="161.83" r="1.03"/>
<path fill="#0e120c" d="
  M 57.77 168.23
  L 57.82 168.65
  Q 57.90 169.27 58.53 169.24
  Q 60.87 169.09 61.35 167.11
  Q 61.92 164.76 62.32 162.12
  A 1.30 1.30 0.0 0 1 63.42 161.02
  Q 63.61 160.99 63.80 161.01
  Q 64.53 161.08 64.38 161.79
  L 62.94 168.59
  A 0.32 0.32 0.0 0 0 63.24 168.98
  L 63.64 168.99
  A 0.84 0.83 7.9 0 0 64.49 168.35
  L 65.41 164.39
  Q 65.57 163.72 66.25 163.76
  L 66.78 163.80
  Q 67.48 163.84 67.33 164.53
  L 66.46 168.47
  A 0.41 0.41 0.0 0 0 66.82 168.96
  L 67.11 168.98
  Q 67.66 169.04 67.82 168.51
  L 68.66 165.63
  Q 69.20 163.79 71.11 163.70
  Q 72.40 163.64 73.61 163.66
  Q 74.81 163.68 74.46 164.84
  Q 73.72 167.24 73.63 169.48
  C 73.59 170.64 72.81 172.11 72.17 173.06
  A 1.53 1.53 0.0 0 1 70.88 173.74
  Q 68.42 173.69 69.50 171.32
  A 1.13 1.13 0.0 0 0 69.05 169.87
  Q 68.79 169.72 68.46 169.68
  Q 67.90 169.61 67.45 169.94
  Q 66.20 170.81 65.05 170.03
  A 1.19 1.17 46.0 0 0 63.78 170.00
  Q 62.08 171.02 61.03 169.52
  A 0.59 0.59 0.0 0 0 60.10 169.47
  Q 59.68 169.98 59.03 170.19
  C 56.57 170.98 55.29 169.32 55.88 167.12
  Q 56.38 165.24 57.85 163.88
  A 1.81 1.80 30.9 0 1 59.55 163.46
  Q 61.41 163.96 60.86 165.33
  Q 60.10 167.22 58.21 167.61
  Q 57.70 167.72 57.77 168.23
  Z
  M 58.1945 166.9816
  A 1.50 0.54 119.8 0 0 59.4086 165.9484
  A 1.50 0.54 119.8 0 0 59.6855 164.3784
  A 1.50 0.54 119.8 0 0 58.4714 165.4116
  A 1.50 0.54 119.8 0 0 58.1945 166.9816
  Z
  M 70.4764 169.1068
  A 2.49 0.94 108.1 0 0 72.1435 167.0320
  A 2.49 0.94 108.1 0 0 72.0236 164.3732
  A 2.49 0.94 108.1 0 0 70.3565 166.4480
  A 2.49 0.94 108.1 0 0 70.4764 169.1068
  Z
  M 70.45 172.31
  Q 70.76 171.66 70.90 170.85
  Q 70.94 170.59 70.68 170.52
  Q 70.55 170.49 70.42 170.52
  Q 69.86 170.65 70.02 171.20
  Q 70.17 171.71 70.13 172.22
  Q 70.04 173.14 70.45 172.31
  Z"
/>
<path fill="#0e120c" d="
  M 84.29 168.97
  Q 84.94 168.74 85.53 168.24
  Q 86.20 167.66 85.82 168.46
  Q 84.49 171.23 81.90 169.94
  Q 81.39 169.68 80.95 170.05
  Q 80.14 170.73 78.99 170.20
  A 1.31 1.31 0.0 0 1 78.25 168.71
  L 79.01 165.35
  Q 79.13 164.84 78.62 164.94
  L 78.28 165.02
  Q 77.53 165.18 77.37 165.93
  L 76.63 169.67
  Q 76.50 170.32 75.84 170.27
  L 74.76 170.20
  Q 74.08 170.15 74.33 169.52
  Q 75.66 166.14 76.25 162.22
  Q 76.45 160.90 77.80 160.94
  Q 78.40 160.96 78.30 161.55
  L 77.97 163.44
  A 0.32 0.32 0.0 0 0 78.43 163.78
  Q 79.55 163.23 80.31 163.90
  Q 80.92 164.43 80.78 165.29
  Q 80.53 166.76 80.22 168.11
  A 0.70 0.70 0.0 0 0 80.38 168.73
  Q 81.12 169.57 81.83 168.16
  A 1.74 1.74 0.0 0 0 81.99 167.53
  Q 82.10 164.30 83.41 161.85
  Q 83.56 161.58 83.86 161.50
  Q 84.84 161.25 85.03 162.53
  A 0.42 0.40 -43.6 0 1 85.02 162.73
  L 83.65 168.39
  Q 83.44 169.27 84.29 168.97
  Z"
/>
<path fill="#0e120c" d="
  M 144.73 168.65
  Q 145.51 166.19 145.90 163.30
  Q 146.12 161.64 147.69 161.57
  Q 148.38 161.53 148.23 162.21
  L 146.83 168.47
  Q 146.63 169.34 147.46 169.00
  L 147.75 168.88
  A 1.06 1.05 80.6 0 0 148.42 167.94
  Q 148.58 164.34 151.60 163.48
  A 1.46 1.46 0.0 0 1 153.36 165.42
  Q 152.63 167.23 150.91 167.53
  A 0.78 0.78 0.0 0 0 150.62 168.96
  Q 151.89 169.77 153.60 168.22
  A 0.15 0.15 0.0 0 1 153.82 168.41
  Q 151.78 171.44 148.67 169.77
  Q 148.31 169.57 147.98 169.81
  Q 146.55 170.87 145.15 169.90
  Q 144.71 169.59 144.23 169.83
  L 143.62 170.14
  A 1.59 1.59 0.0 0 1 141.35 168.38
  L 142.22 164.30
  Q 142.35 163.71 142.96 163.73
  L 143.30 163.74
  A 0.80 0.79 -82.8 0 1 144.05 164.71
  L 143.24 168.32
  Q 143.13 168.82 143.63 168.94
  L 144.05 169.04
  A 0.58 0.58 0.0 0 0 144.73 168.65
  Z
  M 150.8133 166.9331
  A 1.46 0.56 118.5 0 0 152.0021 165.9172
  A 1.46 0.56 118.5 0 0 152.2067 164.3669
  A 1.46 0.56 118.5 0 0 151.0179 165.3828
  A 1.46 0.56 118.5 0 0 150.8133 166.9331
  Z"
/>
<path fill="#0e120c" d="
  M 97.83 168.79
  L 98.54 168.23
  Q 99.20 167.72 98.91 168.50
  Q 98.23 170.27 96.71 170.40
  A 1.58 1.58 0.0 0 1 95.03 168.46
  L 95.77 165.33
  Q 95.90 164.79 95.35 164.92
  L 94.92 165.03
  Q 94.30 165.18 94.16 165.81
  L 93.38 169.54
  Q 93.19 170.45 92.28 170.29
  Q 90.97 170.06 89.69 170.35
  A 1.26 1.26 0.0 0 1 88.18 168.88
  L 89.04 164.38
  A 0.83 0.82 5.5 0 1 89.85 163.72
  L 90.35 163.71
  A 0.66 0.66 0.0 0 1 90.99 164.52
  L 90.11 168.43
  Q 90.01 168.87 90.46 168.91
  L 90.78 168.95
  Q 91.56 169.03 91.72 168.26
  L 92.48 164.67
  Q 92.63 163.96 93.34 163.89
  L 96.11 163.59
  A 1.32 1.31 -88.5 0 1 97.55 165.11
  L 97.01 168.31
  Q 96.80 169.60 97.83 168.79
  Z"
/>
<path fill="#0e120c" d="
  M 121.78 164.94
  Q 121.12 164.42 120.94 165.25
  L 119.96 169.74
  Q 119.86 170.20 119.40 170.31
  Q 118.45 170.54 117.93 169.67
  A 0.46 0.46 0.0 0 0 117.21 169.58
  C 115.64 171.16 112.84 170.53 113.08 167.90
  Q 113.37 164.68 116.10 163.49
  A 1.41 1.41 0.0 0 1 118.07 164.91
  Q 117.89 166.87 115.72 167.52
  Q 115.36 167.62 115.17 167.94
  Q 114.99 168.23 115.04 168.58
  Q 115.13 169.14 115.70 169.15
  Q 118.94 169.21 118.95 165.16
  Q 118.96 163.38 120.68 163.82
  Q 121.63 164.05 122.59 163.72
  A 0.65 0.65 0.0 0 1 123.45 164.23
  Q 123.56 164.90 123.10 165.26
  Q 122.64 165.61 122.18 165.25
  L 121.78 164.94
  Z
  M 115.5792 166.8174
  A 1.38 0.57 117.2 0 0 116.7170 165.8505
  A 1.38 0.57 117.2 0 0 116.8408 164.3626
  A 1.38 0.57 117.2 0 0 115.7030 165.3295
  A 1.38 0.57 117.2 0 0 115.5792 166.8174
  Z"
/>
<path fill="#0e120c" d="
  M 129.02 169.20
  Q 129.45 168.73 130.05 168.55
  Q 130.74 168.34 130.29 168.90
  Q 129.86 169.44 129.22 169.59
  Q 128.71 169.71 128.50 170.19
  C 127.93 171.47 127.76 173.03 126.22 173.59
  A 1.50 1.49 79.8 0 1 124.21 172.19
  Q 124.21 171.16 124.70 171.26
  Q 125.02 171.33 124.97 171.65
  Q 124.92 172.05 125.11 172.39
  Q 125.54 173.17 125.59 172.28
  Q 125.62 171.67 125.87 171.08
  A 0.44 0.44 0.0 0 0 125.46 170.47
  Q 124.11 170.50 123.50 169.39
  A 1.28 1.26 -54.3 0 1 123.37 168.56
  L 124.11 164.47
  A 0.88 0.87 -84.9 0 1 124.97 163.75
  L 125.78 163.76
  Q 126.32 163.76 126.19 164.28
  L 125.27 168.29
  Q 125.13 168.92 125.78 168.91
  L 126.04 168.90
  A 0.67 0.66 5.0 0 0 126.67 168.38
  L 127.46 164.67
  Q 127.65 163.76 128.58 163.75
  L 128.93 163.75
  Q 129.63 163.75 129.47 164.43
  L 128.42 168.98
  Q 128.15 170.14 129.02 169.20
  Z"
/>
<path fill="#0e120c" d="
  M 82.32 179.13
  Q 82.48 179.15 82.64 179.09
  Q 83.23 178.87 82.97 178.30
  Q 82.89 178.12 82.72 178.05
  Q 82.26 177.84 82.76 177.81
  Q 83.03 177.79 83.25 177.95
  Q 83.61 178.19 83.51 178.62
  Q 83.36 179.29 83.65 179.95
  Q 83.89 180.49 83.50 180.93
  Q 83.24 181.23 82.80 181.24
  Q 82.00 181.28 82.68 180.86
  Q 82.91 180.73 82.96 180.50
  Q 83.04 180.14 82.74 179.92
  L 81.46 179.03
  A 0.57 0.57 0.0 0 1 81.31 178.25
  Q 81.47 178.01 81.77 177.95
  Q 82.41 177.83 82.02 178.36
  Q 81.93 178.49 81.91 178.65
  Q 81.88 179.09 82.32 179.13
  Z"
/>
<ellipse fill="#0e120c" cx="0.00" cy="0.00" transform="translate(86.11,179.50) rotate(90.2)" rx="1.87" ry="0.40"/>
<path fill="#0e120c" d="
  M 89.56 179.42
  L 88.69 180.95
  Q 88.04 182.09 88.13 180.78
  L 88.28 178.33
  Q 88.33 177.67 88.87 178.04
  L 89.31 178.34
  A 0.82 0.82 0.0 0 1 89.56 179.42
  Z"
/>
<path fill="#0e120c" d="
  M 90.56 178.44
  Q 90.48 178.25 90.55 178.06
  Q 90.62 177.86 90.82 177.85
  Q 91.19 177.84 91.20 178.20
  L 91.25 180.77
  Q 91.26 181.24 90.79 181.24
  L 90.52 181.24
  A 0.24 0.23 -6.1 0 1 90.29 181.06
  Q 90.06 180.03 90.54 179.12
  Q 90.71 178.78 90.56 178.44
  Z"
/>
<path fill="#0e120c" d="
  M 94.73 180.59
  Q 94.96 180.42 95.22 180.33
  Q 96.25 180.00 95.55 180.82
  Q 94.80 181.71 93.83 181.03
  A 1.52 1.51 -71.7 0 1 93.18 179.73
  Q 93.25 177.55 94.79 177.71
  Q 95.52 177.79 95.69 178.43
  Q 95.84 179.02 95.34 178.68
  L 94.87 178.36
  Q 94.22 177.92 93.99 178.67
  Q 93.76 179.45 93.92 180.28
  A 0.51 0.51 0.0 0 0 94.73 180.59
  Z"
/>
<path fill="#0e120c" d="
  M 99.40 179.41
  Q 99.45 179.34 99.54 179.35
  Q 99.63 179.37 99.64 179.46
  Q 99.65 179.55 99.67 179.64
  Q 99.74 180.05 99.45 179.75
  Q 99.31 179.59 99.10 179.61
  Q 98.95 179.62 98.86 179.74
  Q 98.54 180.20 98.71 180.71
  Q 98.94 181.41 99.56 181.02
  Q 99.82 180.85 100.12 181.03
  Q 100.29 181.13 100.09 181.13
  L 98.33 181.13
  Q 97.77 181.13 97.77 180.58
  L 97.77 178.20
  A 0.38 0.37 87.5 0 1 98.11 177.82
  L 98.49 177.78
  A 0.33 0.32 -69.4 0 1 98.74 178.34
  Q 98.53 178.54 98.58 178.84
  Q 98.67 179.32 99.07 179.49
  Q 99.26 179.57 99.40 179.41
  Z"
/>
<path fill="#0e120c" d="
  M 105.57 179.03
  Q 105.36 178.69 105.33 178.28
  Q 105.31 178.10 105.48 178.04
  L 106.16 177.80
  Q 106.52 177.67 106.47 178.05
  Q 106.33 179.29 106.80 180.63
  Q 106.96 181.09 106.49 181.25
  Q 106.25 181.33 106.00 181.31
  Q 105.10 181.23 105.60 180.48
  Q 105.74 180.27 105.78 180.03
  Q 105.87 179.49 105.57 179.03
  Z"
/>
<path fill="#0e120c" d="
  M 109.40 179.91
  Q 108.79 179.49 109.12 178.53
  A 1.05 1.02 88.3 0 1 109.71 177.89
  Q 110.55 177.53 110.67 178.24
  Q 110.77 178.75 110.86 179.25
  Q 111.10 180.49 110.23 181.03
  Q 109.46 181.51 109.62 180.62
  Q 109.65 180.48 109.64 180.34
  Q 109.63 180.06 109.40 179.91
  Z"
/>
<path fill="#0e120c" d="
  M 113.50 179.85
  Q 113.37 179.92 113.23 179.89
  Q 113.11 179.86 113.10 179.73
  Q 113.01 178.91 113.51 178.14
  Q 113.95 177.46 114.47 178.08
  Q 115.20 178.95 114.74 180.37
  Q 114.54 180.97 114.01 181.17
  Q 113.53 181.34 113.67 180.85
  Q 113.79 180.41 113.69 179.94
  A 0.13 0.13 0.0 0 0 113.50 179.85
  Z"
/>
<path fill="#0e120c" d="
  M 117.30 180.05
  Q 117.18 180.23 117.18 180.44
  Q 117.20 180.87 116.77 180.82
  Q 116.50 180.78 116.53 180.50
  Q 116.54 180.42 116.60 180.37
  Q 117.46 179.47 117.30 178.28
  Q 117.23 177.70 117.81 177.79
  L 118.28 177.86
  Q 118.72 177.93 118.72 178.38
  L 118.73 180.39
  Q 118.73 180.86 118.34 181.14
  Q 118.02 181.36 117.65 181.22
  Q 117.21 181.04 117.59 180.76
  Q 117.71 180.67 117.79 180.54
  Q 117.95 180.27 117.78 180.01
  Q 117.75 179.97 117.70 179.95
  Q 117.45 179.83 117.30 180.05
  Z"
/>
</svg>
