<svg aria-hidden="true" style="position: absolute; width: 0; height: 0; overflow: hidden;" version="1.1" xmlns="http://www.w3.org/2000/svg" xmlns:xlink="http://www.w3.org/1999/xlink">
<defs>
<symbol id="icon-avatar" viewBox="0 0 32 32">
<path d="M18.996 14.183c0.59 0 1.168-0.156 1.659-0.449s0.874-0.71 1.099-1.197c0.226-0.487 0.285-1.024 0.17-1.541s-0.4-0.993-0.817-1.365-0.95-0.627-1.529-0.73c-0.579-0.103-1.179-0.050-1.725 0.152s-1.012 0.544-1.34 0.982c-0.328 0.439-0.503 0.954-0.503 1.482 0 0.707 0.315 1.386 0.874 1.886s1.319 0.781 2.111 0.781zM18.996 10.627c0.197 0 0.389 0.052 0.553 0.15s0.291 0.237 0.367 0.399c0.075 0.162 0.095 0.341 0.057 0.514s-0.133 0.331-0.272 0.455c-0.139 0.124-0.316 0.209-0.509 0.243s-0.393 0.017-0.575-0.051c-0.182-0.067-0.337-0.181-0.447-0.327s-0.168-0.318-0.168-0.494c0-0.236 0.105-0.462 0.292-0.629s0.44-0.26 0.704-0.26z"></path>
<path d="M25.962 5.293h-19.902c-0.528 0-1.034 0.187-1.407 0.521s-0.583 0.786-0.583 1.257v17.779c0 0.472 0.21 0.924 0.583 1.257s0.879 0.521 1.407 0.521h19.902c0.528 0 1.034-0.187 1.407-0.521s0.583-0.786 0.583-1.257v-17.779c0-0.472-0.21-0.924-0.583-1.257s-0.879-0.521-1.407-0.521zM25.962 24.851h-19.902v-5.334l4.976-4.445 5.563 4.969c0.373 0.331 0.877 0.517 1.403 0.517s1.030-0.186 1.403-0.517l1.582-1.413 4.976 4.445v1.778zM25.962 20.557l-3.573-3.192c-0.373-0.331-0.877-0.517-1.403-0.517s-1.030 0.186-1.403 0.517l-1.582 1.414-5.563-4.969c-0.373-0.331-0.877-0.517-1.403-0.517s-1.030 0.186-1.403 0.517l-3.572 3.191v-9.93h19.902v13.486z"></path>
</symbol>
</defs>
</svg>
